<?xml version="1.0" standalone="no"?>
<!DOCTYPE svg PUBLIC "-//W3C//DTD SVG 1.1//EN" "http://www.w3.org/Graphics/SVG/1.1/DTD/svg11.dtd" >
<svg xmlns="http://www.w3.org/2000/svg" xmlns:xlink="http://www.w3.org/1999/xlink" version="1.1">
<metadata>
Created by FontForge 20170910 at Fri Sep  3 12:28:57 2010
 By Jimmy Wärting
(C) "ATRI",Graphic Bureau "Az-Zet"(R),V.Kuchmin,21.07.92
</metadata>
<defs>
<font id="Avanti" horiz-adv-x="2515" >
  <font-face 
    font-family="Avanti"
    font-weight="400"
    font-stretch="normal"
    units-per-em="4096"
    panose-1="2 11 114 0 0 0 0 0 0 0"
    ascent="3276"
    descent="-820"
    x-height="2245"
    cap-height="3031"
    bbox="-188 -877 4448 3817"
    underline-thickness="58"
    underline-position="-125"
    unicode-range="U+0020-2122"
  />
<missing-glyph horiz-adv-x="3072" 
d="M512 0v2560h2048v-2560h-2048zM2494 66v2428h-1916v-2428h1916z" />
    <glyph glyph-name=".notdef" horiz-adv-x="3072" 
d="M512 0v2560h2048v-2560h-2048zM2494 66v2428h-1916v-2428h1916z" />
    <glyph glyph-name="NULL" horiz-adv-x="0" 
 />
    <glyph glyph-name="nonmarkingreturn" horiz-adv-x="0" 
 />
    <glyph glyph-name="space" unicode=" " horiz-adv-x="1565" 
 />
    <glyph glyph-name="exclam" unicode="!" horiz-adv-x="1425" 
d="M459 0v516h303v-516h-303zM459 795v2236h303v-2236h-303z" />
    <glyph glyph-name="quotedbl" unicode="&#x22;" horiz-adv-x="1327" 
d="M303 2105v926h213v-926h-213zM762 2105v926h213v-926h-213z" />
    <glyph glyph-name="numbersign" unicode="#" horiz-adv-x="2417" 
d="M328 0l303 1024h-606l65 238h615l147 507h-614l65 238h623l295 1024h172l-295 -1024h368l303 1024h164l-295 -1024h615l-66 -238h-622l-148 -507h615l-66 -238h-623l-294 -1024h-181l303 1024h-368l-303 -1024h-172zM877 1262h368l148 507h-369z" />
    <glyph glyph-name="dollar" unicode="$" horiz-adv-x="2327" 
d="M1008 -221v344q-187 28 -348 137t-255 273.5t-94 351.5v49h287q0 -3 -4 -16t-4 -17q0 -143 76.5 -261.5t202.5 -186.5t270 -68q217 0 374.5 151.5t157.5 364.5q0 257 -141 384.5t-408 197.5q-195 60 -309 110.5t-207 143.5q-205 205 -205 516q0 181 76 333.5t214 253.5
t317 134v336h262v-336q193 -28 343 -131t232.5 -261.5t87.5 -353.5h-286q0 211 -138.5 347.5t-353.5 136.5q-175 0 -303 -107q-156 -124 -156 -369q0 -222 122 -318.5t370 -164.5q387 -117 541 -270q115 -109 176 -259.5t61 -314.5q0 -192 -92.5 -369.5t-253 -291
t-350.5 -125.5v-344h-262z" />
    <glyph glyph-name="percent" unicode="%" horiz-adv-x="3228" 
d="M745 0l1360 3031h295l-1360 -3031h-295zM778 3080q197 0 358.5 -97.5t254 -263t92.5 -360.5q0 -189 -97.5 -353t-263 -261.5t-352.5 -97.5q-188 0 -353 97.5t-262.5 263.5t-97.5 359q0 201 94.5 364.5t259 256t367.5 92.5zM778 2785q-190 0 -312 -116.5t-122 -301.5
q0 -177 126.5 -305.5t299.5 -128.5q116 0 212 61t151 165t55 225q0 167 -118.5 284t-291.5 117zM2376 1384q149 0 278.5 -57.5t225 -159.5t148 -234t52.5 -278q0 -192 -97 -356t-261 -260t-355 -96q-188 0 -352.5 97.5t-262 262t-97.5 352.5q0 202 94 369t260 263.5
t367 96.5zM2376 1098q-188 0 -311 -128t-123 -315q0 -114 58 -210.5t156.5 -151.5t210.5 -55q183 0 304.5 127t121.5 307q0 173 -122.5 299.5t-294.5 126.5z" />
    <glyph glyph-name="ampersand" unicode="&#x26;" horiz-adv-x="3269" 
d="M2466 1966h344l-565 -1065l770 -745l-222 -213l-688 680q-106 -209 -235 -358.5t-303 -235.5t-396 -86q-253 0 -467.5 127.5t-340 344.5t-125.5 470q0 301 191.5 528.5t488.5 372.5q-163 163 -241.5 301.5t-78.5 329.5q0 176 101 327.5t264 241t340 94.5q200 -5 371 -99
t272.5 -259t101.5 -363q0 -237 -169 -409t-421 -271l574 -565zM1147 1556l-131 -73q-225 -111 -350 -256t-125 -367q0 -160 83 -304.5t222.5 -231t300.5 -86.5q184 0 318 81t225.5 209t185.5 316zM1745 2400q0 161 -132.5 273t-293.5 112q-170 0 -294 -108.5t-124 -276.5
q0 -72 29.5 -139t78 -128t104 -116t116.5 -116q516 189 516 499z" />
    <glyph glyph-name="quotesingle" unicode="'" horiz-adv-x="999" 
d="M303 2105v926h205v-926h-205z" />
    <glyph glyph-name="parenleft" unicode="(" horiz-adv-x="1712" 
d="M1376 3031v-262q-186 -105 -344.5 -272t-270.5 -371t-170.5 -426t-58.5 -438l9 -17l-9 -24q0 -280 107 -569.5t300.5 -529.5t436.5 -376v-270q-215 57 -427 247t-367 416q-168 248 -256 531t-88 575q0 595 319 1098q156 241 371 436t448 252z" />
    <glyph glyph-name="parenright" unicode=")" horiz-adv-x="1475" 
d="M139 -524v270q190 106 345.5 271.5t265 368.5t167.5 424t58 435q0 300 -100 594t-290.5 536t-445.5 386v270q240 -68 451 -257.5t368 -430.5q320 -484 320 -1098q0 -608 -344 -1106q-155 -226 -367 -416t-428 -247z" />
    <glyph glyph-name="asterisk" unicode="*" horiz-adv-x="1753" 
d="M1475 2597v-213h-410l221 -361l-188 -114l-221 368l-213 -368l-197 114l221 361h-426v213h426l-221 369l197 114l213 -368l221 368l188 -114l-221 -369h410z" />
    <glyph glyph-name="plus" unicode="+" 
d="M1090 1401v868h311v-868h876v-311h-876v-885h-311v885h-877v311h877z" />
    <glyph glyph-name="comma" unicode="," horiz-adv-x="1475" 
d="M377 -279l360 795h303l-360 -795h-303z" />
    <glyph glyph-name="hyphen" unicode="-" horiz-adv-x="1376" 
d="M131 1368h1106v-270h-1106v270z" />
    <glyph glyph-name="period" unicode="." horiz-adv-x="1139" 
d="M418 0v516h303v-516h-303z" />
    <glyph glyph-name="slash" unicode="/" horiz-adv-x="1802" 
d="M164 -524l1188 3555h278l-1196 -3555h-270z" />
    <glyph glyph-name="zero" unicode="0" horiz-adv-x="2277" 
d="M123 1155v787q0 249 49.5 427t187.5 351q142 172 347 266t432 94q218 0 412.5 -85t332.5 -242q149 -161 209.5 -360.5t60.5 -450.5v-787q0 -274 -42.5 -468t-178.5 -368q-313 -376 -794 -376q-468 0 -779 360q-147 176 -192 372.5t-45 479.5zM1851 1204v664
q0 426 -131 622q-90 134 -250.5 214.5t-330.5 80.5q-182 0 -352 -93.5t-255 -250.5q-106 -183 -106 -573v-664q0 -219 24.5 -384.5t106.5 -287.5q213 -294 582 -294q407 0 606 335q106 186 106 631z" />
    <glyph glyph-name="one" unicode="1" horiz-adv-x="2277" 
d="M1147 0v2753h-508v278h811v-3031h-303z" />
    <glyph glyph-name="two" unicode="2" horiz-adv-x="2277" 
d="M139 0v270l1155 1114q224 216 349.5 389t125.5 381q0 180 -89.5 324t-242.5 225.5t-331 81.5q-108 0 -215.5 -38.5t-196 -108.5t-145.5 -164q-90 -169 -90 -360q0 -9 4 -34t4 -32h-303q0 8 -4 29t-4 28q0 271 126 495t349 352t499 128q385 0 656 -270q287 -274 287 -647
q0 -210 -77.5 -379.5t-188 -293t-316.5 -319.5l-934 -892h1499v-279h-1917z" />
    <glyph glyph-name="three" unicode="3" horiz-adv-x="2277" 
d="M647 2277h-303q0 222 96 405.5t272 290.5t402 107q207 0 380.5 -104.5t273.5 -284t100 -389.5q0 -181 -77 -314t-235 -251q152 -67 268 -194.5t178 -289t62 -327.5q0 -265 -130.5 -492t-355 -359t-488.5 -132q-258 0 -479 135.5t-350.5 360.5t-129.5 479q0 4 4 16t4 16
h303q17 -256 99 -393q99 -144 240 -231.5t300 -87.5q190 0 345.5 91t245 248t89.5 341q0 213 -125.5 387.5t-324.5 242.5q-123 41 -312 41h-98v271l107 -9q239 0 398 121t159 355q0 131 -62 236.5t-171.5 163.5t-241.5 58q-135 0 -235.5 -70.5t-154 -187.5t-53.5 -250z" />
    <glyph glyph-name="four" unicode="4" horiz-adv-x="2277" 
d="M1581 0v557h-1532v270l1467 2204h368v-2204h279v-270h-279v-557h-303zM1581 827v1786l-1171 -1786h1171z" />
    <glyph glyph-name="five" unicode="5" horiz-adv-x="2277" 
d="M270 1540l279 1491h1368v-278h-1122l-156 -836q255 147 516 147q279 0 510.5 -144.5t364.5 -388.5t133 -523q0 -211 -75.5 -403t-214.5 -342t-325.5 -235t-400.5 -85q-212 0 -395 77t-323 215.5t-223.5 323t-99.5 391.5h304q12 -187 108 -351.5t256.5 -262.5t355.5 -98
q206 0 374 104t262 280t94 377q0 202 -93.5 380t-260 284t-367.5 106q-180 0 -344 -86.5t-279 -232.5z" />
    <glyph glyph-name="six" unicode="6" horiz-adv-x="2277" 
d="M1212 3031h353l-721 -1065q155 90 360 90q203 0 380 -86.5t309 -236.5t205 -338.5t73 -386.5q0 -199 -78 -392t-217 -346q-315 -327 -746 -327q-279 0 -515 145t-372.5 389.5t-136.5 521.5q0 187 49.5 340t107.5 252.5t229 366.5zM1130 1769q-199 0 -365 -102
t-260.5 -273t-94.5 -370q0 -207 92 -388.5t257.5 -289.5t370.5 -108q200 0 370 104t269 280.5t99 376.5q0 204 -96 381t-266 283t-376 106z" />
    <glyph glyph-name="seven" unicode="7" horiz-adv-x="2277" 
d="M442 0l1246 2753h-1426v278h1745v-278l-1237 -2753h-328z" />
    <glyph glyph-name="eight" unicode="8" horiz-adv-x="2277" 
d="M688 1696q-172 83 -262 243.5t-90 362.5q0 222 109 400.5t296 278t406 99.5t402 -107.5t288 -292.5t105 -403q0 -188 -96.5 -348.5t-264.5 -232.5q152 -68 270 -192t182 -283.5t64 -327.5q0 -195 -77.5 -370t-213.5 -305t-313 -202.5t-371 -72.5q-254 0 -473 128.5
t-348 347.5t-129 474q0 249 145.5 484.5t370.5 318.5zM1130 1532q-178 0 -329.5 -88t-238.5 -239.5t-87 -327.5t87.5 -322.5t237.5 -231.5t322 -85q183 0 338.5 86.5t244.5 237.5t89 331q0 179 -91 325.5t-244.5 230t-328.5 83.5zM1147 2785q-131 0 -248.5 -59.5
t-188.5 -166t-71 -241.5q0 -214 146.5 -356.5t361.5 -142.5q127 0 240 66.5t182 178.5t69 238q0 202 -143.5 342.5t-347.5 140.5z" />
    <glyph glyph-name="nine" unicode="9" horiz-adv-x="2277" 
d="M1065 0h-352l712 1065q-151 -98 -360 -98q-263 0 -484 151.5t-348 397t-127 507.5q0 199 78.5 393.5t216.5 344.5q295 319 746 319q276 0 512 -145t374 -387t138 -516q0 -187 -49.5 -341t-119 -270.5t-224.5 -347.5zM410 2032v-17q0 -187 102 -362.5t266.5 -283
t335.5 -107.5l25 8q4 0 12 -4t12 -4q191 0 353.5 103t257 275.5t94.5 366.5q0 206 -94 384.5t-262 286t-373 107.5q-196 0 -366.5 -103.5t-271 -276.5t-100.5 -365z" />
    <glyph glyph-name="colon" unicode=":" horiz-adv-x="1188" 
d="M418 0v516h303v-516h-303zM418 1573v516h303v-516h-303z" />
    <glyph glyph-name="semicolon" unicode=";" horiz-adv-x="1237" 
d="M172 -279l360 795h304l-361 -795h-303zM532 1573v516h304v-516h-304z" />
    <glyph glyph-name="less" unicode="&#x3c;" horiz-adv-x="2605" 
d="M590 1237l1696 -786v-295l-2081 950v262l2081 950v-303z" />
    <glyph glyph-name="equal" unicode="=" 
d="M2277 1786v-303h-2064v303h2064zM2277 991v-311h-2064v311h2064z" />
    <glyph glyph-name="greater" unicode="&#x3e;" 
d="M197 451l1695 786l-1695 778v303l2089 -950v-262l-2089 -950v295z" />
    <glyph glyph-name="question" unicode="?" horiz-adv-x="2466" 
d="M1081 0v516h303v-516h-303zM557 2081h-287v90q0 168 76.5 339.5t202.5 291.5q134 134 314 206t374 72q258 0 468 -121.5t329.5 -334t119.5 -470.5q0 -209 -96 -355.5t-283.5 -328t-285.5 -326.5t-105 -349h-303l-8 16q0 407 434 811q180 162 262 276.5t82 288.5
q0 163 -89.5 300.5t-236 217.5t-304.5 80h-9l-16 -8q-172 0 -321.5 -91.5t-237.5 -243.5t-88 -320q0 -3 4 -20t4 -21z" />
    <glyph glyph-name="at" unicode="@" horiz-adv-x="3555" 
d="M2949 721h246q-96 -175 -239.5 -317.5t-323 -244.5t-376.5 -155t-396 -53q-432 0 -792 211.5t-566.5 575t-206.5 794.5q0 420 211 777t572 564t782 207q173 0 346.5 -40t333.5 -119.5t294 -192.5q216 -191 325.5 -427t109.5 -523q0 -422 -246 -754q-138 -201 -320.5 -326
t-400.5 -125q-112 0 -214 54.5t-138 158.5q-89 -95 -223.5 -149.5t-268.5 -54.5q-169 0 -300.5 82.5t-202 222t-70.5 309.5q0 285 131 578t366.5 484t526.5 191q148 0 274 -70t184 -200l66 188h279l-418 -1245q-58 -132 -58 -213q0 -52 37 -87.5t86 -35.5q130 0 268 103.5
t232 232.5q205 296 205 672q0 244 -99 447.5t-270 347.5t-389.5 219.5t-454.5 75.5q-371 0 -681.5 -189t-490 -508t-179.5 -688q0 -364 183.5 -673.5t497 -489.5t679.5 -180q214 0 417.5 68t376.5 196t295 301zM1516 844q146 0 270 106.5t205 253.5q213 428 213 705
q0 75 -37.5 143.5t-103.5 110t-146 41.5q-207 0 -372 -160t-257 -393.5t-92 -429.5q0 -156 86.5 -266.5t233.5 -110.5z" />
    <glyph glyph-name="A" unicode="A" horiz-adv-x="3031" 
d="M49 0l1303 3031h336l1302 -3031h-328l-442 1016h-1409l-434 -1016h-328zM934 1294h1171l-581 1385z" />
    <glyph glyph-name="B" unicode="B" horiz-adv-x="2564" 
d="M311 0v3031h713q216 0 380.5 -30.5t307.5 -125.5q161 -104 256.5 -278.5t95.5 -368.5q0 -375 -335 -606q236 -96 367.5 -298.5t131.5 -463.5q0 -140 -44 -271.5t-127.5 -241.5t-196.5 -183q-128 -77 -258 -110.5t-229 -40t-349 -13.5h-713zM614 279h377q28 0 74 -4.5
t65 -4.5q314 0 500 99q129 67 212 204.5t83 278.5q0 130 -46 239.5t-131 189t-200 120.5q-171 57 -491 57h-443v-1179zM614 1737h328q13 0 41 -4t41 -4q325 0 492 98q108 54 176.5 173t68.5 245q0 123 -66 239.5t-171 177.5q-141 91 -434 91h-476v-1016z" />
    <glyph glyph-name="C" unicode="C" horiz-adv-x="3416" 
d="M3146 2253h-336q-111 167 -282 287.5t-373 182.5t-402 62q-253 0 -484.5 -101.5t-409 -280.5t-277 -407.5t-99.5 -471.5q0 -342 177 -640t474.5 -472t634.5 -174q202 0 398 68.5t365.5 196.5t285.5 292h336q-128 -249 -344.5 -443.5t-488 -301.5t-552.5 -107
q-434 0 -799.5 208.5t-577.5 572.5t-212 800q0 420 211 779t572 568t782 209q489 0 876 -254q160 -103 314.5 -262t210.5 -311z" />
    <glyph glyph-name="D" unicode="D" horiz-adv-x="3129" 
d="M311 0v3031h819q370 -7 656 -82.5t532 -269.5q169 -141 294 -328.5t190 -401t65 -425.5q0 -163 -33 -319.5t-96.5 -302t-154 -273.5t-207.5 -236q-253 -229 -546 -311t-683 -82h-836zM614 279h394q250 0 419 15t342 76.5t328 186.5q225 176 346 426.5t121 540.5
q0 589 -467 958q-209 154 -443 212.5t-532 58.5h-508v-2474z" />
    <glyph glyph-name="E" unicode="E" horiz-adv-x="2228" 
d="M311 0v3031h1655v-278h-1352v-1090h1311v-270h-1311v-1114h1352v-279h-1655z" />
    <glyph glyph-name="F" unicode="F" horiz-adv-x="2040" 
d="M311 0v3031h1540v-278h-1237v-1090h1188v-279h-1188v-1384h-303z" />
    <glyph glyph-name="G" unicode="G" horiz-adv-x="3654" 
d="M1352 1401h2056q-28 -408 -255 -742.5t-587.5 -525t-763.5 -190.5q-427 0 -802 212.5t-597.5 578.5t-222.5 798q0 294 126.5 580.5t340.5 500.5q239 233 532.5 350t622.5 117q494 0 893 -262q171 -113 322.5 -273.5t201.5 -324.5h-344q-104 176 -274 304t-378.5 194.5
t-420.5 66.5q-530 0 -901 -336q-121 -112 -217.5 -265.5t-148.5 -323.5t-52 -336q0 -269 105.5 -506.5t292 -412.5t429 -271t509.5 -96t521.5 112t440.5 314t258 458h-1687v279z" />
    <glyph glyph-name="H" unicode="H" horiz-adv-x="2802" 
d="M311 0v3031h303v-1335h1573v1335h303v-3031h-303v1425h-1573v-1425h-303z" />
    <glyph glyph-name="I" unicode="I" horiz-adv-x="950" 
d="M311 0v3031h303v-3031h-303z" />
    <glyph glyph-name="J" unicode="J" horiz-adv-x="1950" 
d="M1663 3031v-2179q-6 -104 -10 -178.5t-17.5 -146.5t-46 -142t-90.5 -139q-240 -303 -647 -303q-218 0 -401 102.5t-290.5 279.5t-111.5 396h295q19 -214 172 -348.5t369 -134.5q147 0 266.5 81t175.5 222q33 108 33 286v2204h303z" />
    <glyph glyph-name="K" unicode="K" horiz-adv-x="2564" 
d="M311 0v3031h303v-1745l1401 1745h385l-1196 -1475l1196 -1556h-377l-1015 1311l-394 -484v-827h-303z" />
    <glyph glyph-name="L" unicode="L" horiz-adv-x="2040" 
d="M311 0v3031h303v-2752h1254v-279h-1557z" />
    <glyph glyph-name="M" unicode="M" horiz-adv-x="3744" 
d="M311 0v3031h467l1106 -2580l1106 2580h467v-3031h-303v2695l-1139 -2695h-262l-1139 2695v-2695h-303z" />
    <glyph glyph-name="N" unicode="N" horiz-adv-x="3031" 
d="M311 0v3031h410l1696 -2515v2515h303v-3031h-303l-1803 2662v-2662h-303z" />
    <glyph glyph-name="O" unicode="O" horiz-adv-x="3604" 
d="M1778 3080q422 0 793.5 -208t591.5 -566t220 -782q0 -429 -217 -793t-588 -576t-800 -212q-311 0 -600 119t-515.5 335t-354.5 499.5t-128 602.5q0 435 215.5 797.5t584 573t798.5 210.5zM1786 2785v8q-350 -4 -650.5 -178t-476.5 -470.5t-176 -645.5
q0 -339 180.5 -629.5t481.5 -461t641 -170.5q351 0 648.5 172.5t471.5 468.5t174 645q0 257 -104 489.5t-284 405t-416.5 269.5t-489.5 97z" />
    <glyph glyph-name="P" unicode="P" horiz-adv-x="2466" 
d="M311 0v3031h795q301 -8 475 -34.5t336 -129.5q193 -121 297 -318t104 -427q0 -448 -344 -705q-162 -118 -350 -157t-436 -39h-574v-1221h-303zM614 1499h525q200 0 342 23t264 100q85 54 145.5 133t92.5 173.5t32 193.5q0 195 -99.5 343.5t-277.5 221.5q-152 66 -409 66
h-615v-1254z" />
    <glyph glyph-name="Q" unicode="Q" horiz-adv-x="3604" 
d="M3391 229v-286h-40q-186 0 -340.5 65t-298.5 197q-186 -126 -429 -194t-481 -68q-319 0 -611.5 116.5t-521.5 329.5t-359 498t-130 604q0 339 125 631.5t350 508t522.5 332.5t632.5 117q339 0 639 -118.5t522 -333t346 -508.5t124 -637q0 -309 -135 -597.5t-373 -508.5
q206 -148 393 -148h65zM2482 418l-164 123q-292 233 -508 311q-354 123 -688 123q-262 0 -467 -90q64 -117 185.5 -237.5t240.5 -196.5q314 -213 746 -213q392 0 655 180zM532 1147q305 106 648 106q234 0 441 -45t391 -131.5t357.5 -209t350.5 -285.5q122 113 218 262
t148 314t52 333q0 361 -177 658t-482 466.5t-669 169.5q-269 0 -510.5 -96.5t-425.5 -273t-287.5 -415.5t-103.5 -509q0 -168 49 -344z" />
    <glyph glyph-name="R" unicode="R" horiz-adv-x="2564" 
d="M311 0v3031h721q280 0 486.5 -27.5t373.5 -119.5q232 -134 353.5 -355t121.5 -489q0 -242 -120 -448t-325.5 -329.5t-446.5 -132.5l852 -1130h-377l-1032 1376h90q15 0 48 -4t50 -4q356 0 565 90q184 87 288.5 250.5t104.5 364.5q0 98 -35.5 201t-100 190t-150.5 149
q-130 93 -285.5 116.5t-394.5 23.5h-484v-2753h-303z" />
    <glyph glyph-name="S" unicode="S" horiz-adv-x="2138" 
d="M90 852h328q5 -169 84.5 -309t216.5 -222.5t305 -82.5q169 0 313 78t227 215t83 305q0 121 -56 237.5t-149 196.5q-146 119 -467 196q-198 53 -316.5 98.5t-216.5 131.5q-254 217 -254 565q0 241 115 427.5t312 289t434 102.5q220 0 411 -108.5t303.5 -296t112.5 -406.5
v-8h-311q-12 149 -86 269t-195.5 187.5t-275.5 67.5q-145 0 -263 -70.5t-185.5 -190.5t-67.5 -263q0 -172 82 -274.5t199.5 -152.5t316.5 -105q54 -16 153 -45.5t161.5 -53.5t131.5 -64t135 -100q133 -114 206 -282.5t73 -347.5q0 -243 -125.5 -448.5t-337.5 -325
t-455 -119.5q-257 0 -472.5 116.5t-342.5 324.5t-127 468z" />
    <glyph glyph-name="T" unicode="T" horiz-adv-x="1753" 
d="M729 0v2753h-696v278h1687v-278h-688v-2753h-303z" />
    <glyph glyph-name="U" unicode="U" horiz-adv-x="2654" 
d="M311 3031h303v-1843q0 -402 140 -631q99 -152 254.5 -235.5t334.5 -83.5q163 0 316.5 74t241.5 204q172 231 172 672v1843h303v-1843q0 -266 -47.5 -472t-182.5 -380q-138 -187 -352 -290t-451 -103q-229 0 -438 96.5t-348 271.5q-101 120 -155 260t-72.5 290t-18.5 327
v1843z" />
    <glyph glyph-name="V" unicode="V" horiz-adv-x="2892" 
d="M1294 0l-1253 3031h336l1057 -2654l1073 2654h327l-1253 -3031h-287z" />
    <glyph glyph-name="W" unicode="W" horiz-adv-x="3932" 
d="M901 0l-860 3031h319l738 -2638l729 2638h287l720 -2638l746 2638h311l-860 -3031h-401l-664 2482l-663 -2482h-402z" />
    <glyph glyph-name="X" unicode="X" 
d="M33 0l1032 1548l-967 1483h353l802 -1212l795 1212h352l-975 -1483l1041 -1548h-361l-852 1294l-860 -1294h-360z" />
    <glyph glyph-name="Y" unicode="Y" horiz-adv-x="2466" 
d="M1065 0v1016l-1057 2015h336l868 -1704l877 1704h328l-1049 -2015v-1016h-303z" />
    <glyph glyph-name="Z" unicode="Z" horiz-adv-x="2040" 
d="M74 0v270l1482 2483h-1441v278h1786v-278l-1483 -2474h1524v-279h-1868z" />
    <glyph glyph-name="bracketleft" unicode="[" horiz-adv-x="1753" 
d="M1286 -213v-311q-316 73 -541 336q-168 186 -227 377.5t-59 465.5v1188q0 258 46 433.5t183 353.5q114 140 276.5 254t321.5 147v-311q-199 -90 -315 -211t-166.5 -283t-50.5 -383v-1138q0 -241 43 -406.5t159 -291t330 -220.5z" />
    <glyph glyph-name="backslash" unicode="\" horiz-adv-x="2327" 
d="M1614 0l-1270 3031h295l1262 -3031h-287z" />
    <glyph glyph-name="bracketright" unicode="]" horiz-adv-x="1327" 
d="M156 2720v311q316 -85 540 -336q169 -186 228 -377.5t59 -466.5v-1187q0 -259 -47.5 -434.5t-190.5 -352.5q-102 -142 -266 -256.5t-323 -144.5v311q290 118 411 333t121 544v1130q0 230 -24 356t-123 267q-124 185 -385 303z" />
    <glyph glyph-name="asciicircum" unicode="^" 
d="M336 737h-262l1048 2294h238l1048 -2294h-262l-909 1983z" />
    <glyph glyph-name="underscore" unicode="_" horiz-adv-x="2040" 
d="M2048 -516h-2048v237h2048v-237z" />
    <glyph glyph-name="grave" unicode="`" horiz-adv-x="1475" 
d="M434 3195l811 -442l-131 -238l-811 434z" />
    <glyph glyph-name="a" unicode="a" horiz-adv-x="2753" 
d="M2540 2245v-2245h-287v426q-83 -155 -218.5 -263.5t-304 -164t-346.5 -55.5q-259 0 -520 122t-471 361q-77 84 -149 282.5t-72 430.5q0 138 39.5 278.5t95.5 249.5t103 152q442 475 966 475q180 0 349 -53.5t307 -160.5t221 -261v426h287zM1376 1999
q-242 0 -449.5 -118.5t-329.5 -322t-122 -444.5q0 -238 125.5 -440.5t335.5 -319t448 -116.5q229 0 429.5 119t320 319t119.5 430q0 244 -114.5 450t-316 324.5t-446.5 118.5z" />
    <glyph glyph-name="b" unicode="b" horiz-adv-x="2753" 
d="M262 0v3031h303v-1204q70 148 205.5 254t302 159.5t336.5 53.5q324 0 603 -153t444 -420t165 -591q0 -221 -78.5 -424t-183.5 -321q-218 -248 -436 -345t-481 -97q-167 0 -341.5 51t-322 152.5t-229.5 238.5v-385h-287zM1417 1999q-369 0 -639 -270q-237 -238 -237 -623
q0 -243 121.5 -442.5t329.5 -312.5t450 -113q237 0 438.5 119.5t319.5 323t118 441.5q0 186 -70 349t-192.5 280.5t-288 182.5t-350.5 65z" />
    <glyph glyph-name="c" unicode="c" horiz-adv-x="2605" 
d="M2154 655h336q-103 -218 -266 -378t-375 -247t-448 -87q-250 0 -472.5 87.5t-394.5 248.5t-267 377.5t-95 465.5q0 324 166.5 593t446 424t599.5 155q236 0 459.5 -89t393 -255t253.5 -385h-336q-116 197 -324.5 315.5t-436.5 118.5q-246 0 -457.5 -113t-336 -312.5
t-124.5 -443.5q0 -247 118.5 -451t324 -322.5t450.5 -118.5q483 0 786 417z" />
    <glyph glyph-name="d" unicode="d" horiz-adv-x="2753" 
d="M2548 3031v-3031h-287v410q-331 -467 -901 -467q-248 0 -475.5 111.5t-466.5 355.5q-91 84 -168.5 289t-77.5 431q0 324 164.5 591t442 420t597.5 153q263 0 501.5 -115.5t367.5 -327.5v1180h303zM2253 1130q0 244 -121.5 443.5t-327.5 312.5t-444 113
q-235 0 -439 -116.5t-325 -316.5t-121 -436q0 -241 120.5 -446.5t326 -325.5t446.5 -120t444.5 119.5t322 325.5t118.5 447z" />
    <glyph glyph-name="e" unicode="e" horiz-adv-x="2654" 
d="M2507 1016h-2032q9 -208 132 -387t317 -285t395 -106q167 0 328.5 60t287 172t187.5 259h319q-76 -221 -243.5 -401t-389.5 -282.5t-456 -102.5q-321 0 -592.5 157.5t-429.5 429t-158 592.5q0 317 156 587.5t425 427.5t590 157q262 0 493.5 -113t408.5 -321
q144 -185 199.5 -382t62.5 -462zM475 1286h1729q-40 199 -165.5 362t-308 257t-387.5 94t-391 -90.5t-313 -254.5t-164 -368z" />
    <glyph glyph-name="f" unicode="f" horiz-adv-x="1475" 
d="M418 0v1966h-352v279h352q0 8 -4 24t-4 25q0 343 222 540t580 197h58v-278h-58q-491 0 -491 -467v-41h557v-279h-557v-1966h-303z" />
    <glyph glyph-name="g" unicode="g" horiz-adv-x="2753" 
d="M2499 2245v-1926q0 -209 -14.5 -335.5t-70 -247.5t-178.5 -252q-152 -171 -394.5 -266t-489.5 -95q-245 0 -475.5 103t-396 289.5t-226.5 427.5h295q140 -255 344 -394t483 -139q225 0 428.5 102.5t309.5 290.5q67 118 82.5 225t15.5 291v123q-106 -240 -354 -369.5
t-523 -129.5q-218 0 -433.5 90.5t-377.5 245.5q-352 328 -352 835q0 218 69.5 416.5t143.5 279.5q387 484 934 484q180 0 353.5 -55.5t315 -165t224.5 -263.5v435h287zM1311 1999q-228 0 -420.5 -116.5t-304 -313t-111.5 -422.5q0 -247 109 -456t306 -331t445 -122
q374 0 615 254q116 122 185 293.5t69 336.5q0 245 -118.5 446t-324.5 316t-450 115z" />
    <glyph glyph-name="h" unicode="h" horiz-adv-x="2417" 
d="M262 0v3031h303v-1114q96 178 283.5 277.5t396.5 99.5q217 0 420 -90t342 -254q238 -267 238 -770v-1180h-303v1180q0 352 -132 540q-95 133 -249.5 206t-331.5 73q-154 0 -305.5 -74t-243.5 -196q-76 -104 -95.5 -230.5t-19.5 -318.5v-1180h-303z" />
    <glyph glyph-name="i" unicode="i" horiz-adv-x="860" 
d="M262 0v2245h303v-2245h-303zM262 2515v516h303v-516h-303z" />
    <glyph glyph-name="j" unicode="j" horiz-adv-x="860" 
d="M573 2245v-2106q0 -159 -11.5 -268.5t-56.5 -218.5t-136 -209q-104 -109 -249.5 -169t-307.5 -60v294q204 8 304 104t127 238.5t27 354.5v2040h303zM270 2515v516h303v-516h-303z" />
    <glyph glyph-name="k" unicode="k" horiz-adv-x="2138" 
d="M262 0v3031h303v-2130l1024 1344h393l-868 -1123l926 -1122h-393l-729 885l-353 -459v-426h-303z" />
    <glyph glyph-name="l" unicode="l" horiz-adv-x="811" 
d="M262 0v3031h303v-3031h-303z" />
    <glyph glyph-name="m" unicode="m" horiz-adv-x="3842" 
d="M262 0v2245h287v-295q76 172 237 258t361 86q441 0 721 -344q13 -13 28.5 -37t28.5 -45q29 41 49 82q114 162 308.5 253t396.5 91q352 0 696 -344q124 -124 168.5 -285.5t44.5 -386.5v-1278h-303v1253q0 321 -115 484q-187 262 -508 262q-143 0 -277.5 -68.5
t-213.5 -185.5q-64 -90 -81 -206t-17 -286v-1253h-304v1286q0 146 -19 243t-87 200q-86 123 -220 196.5t-280 73.5q-145 0 -276 -61.5t-215 -176.5q-71 -98 -89 -202.5t-18 -272.5v-1286h-303z" />
    <glyph glyph-name="n" unicode="n" horiz-adv-x="2466" 
d="M262 0v2245h287v-328q264 377 696 377q224 0 434.5 -98t360.5 -279q119 -147 162 -321.5t43 -415.5v-1180h-303v1180q0 353 -132 532q-211 287 -581 287q-159 0 -308 -71.5t-241 -198.5q-76 -109 -95.5 -234t-19.5 -315v-1180h-303z" />
    <glyph glyph-name="o" unicode="o" horiz-adv-x="2703" 
d="M1352 2294q230 0 441 -90.5t374.5 -252.5t255.5 -373t92 -439q0 -314 -156 -590.5t-423.5 -441t-583.5 -164.5q-313 0 -585.5 157t-433.5 425.5t-161 580.5q0 322 158 595.5t430 433t592 159.5zM1352 1999q-244 0 -445.5 -120t-316.5 -326.5t-115 -446.5q0 -233 118 -433
t320 -317.5t439 -117.5q243 0 440.5 121.5t308.5 329t111 450.5q0 364 -262 614q-259 246 -598 246z" />
    <glyph glyph-name="p" unicode="p" horiz-adv-x="2802" 
d="M262 2245h287v-385q124 206 377.5 320t515.5 114q507 0 917 -434q67 -64 127 -177.5t97.5 -261t37.5 -307.5q0 -245 -94.5 -460.5t-263 -375t-389.5 -247.5t-465 -88q-166 0 -334 55t-304 163t-206 257v-1204h-303v3031zM1417 238q247 0 453.5 114.5t327 315.5t120.5 446
q0 242 -117.5 445t-319 321.5t-439.5 118.5q-243 0 -450.5 -111t-329 -308.5t-121.5 -440.5q0 -386 237 -623q266 -278 639 -278z" />
    <glyph glyph-name="q" unicode="q" horiz-adv-x="2843" 
d="M2540 2245v-3031h-304v1204q-71 -151 -206.5 -258t-305 -162t-340.5 -55q-240 0 -459.5 88t-390.5 248t-266.5 374.5t-95.5 460.5q0 156 38.5 304t100 264t123.5 178q378 434 926 434q256 0 510 -114t383 -320v385h287zM1376 238q381 0 647 278q230 230 230 623
q0 243 -120 440.5t-325.5 308.5t-447.5 111t-445.5 -118t-321.5 -321.5t-118 -445.5q0 -245 121 -446.5t327 -315.5t453 -114z" />
    <glyph glyph-name="r" unicode="r" horiz-adv-x="1237" 
d="M262 0v2245h287v-328q154 362 647 377v-303q-237 -13 -401 -156q-148 -120 -189 -242t-41 -340v-1253h-303z" />
    <glyph glyph-name="s" unicode="s" horiz-adv-x="1565" 
d="M74 664h303l-8 -17q0 -166 125 -287.5t292 -121.5q106 0 196.5 48t144 135t53.5 193q0 185 -117.5 280.5t-317.5 145.5q-177 61 -254.5 94t-154.5 103q-180 166 -180 426q0 178 87 323t237 226.5t323 81.5q164 0 308.5 -83.5t229 -223.5t84.5 -299h-303q0 143 -99.5 227
t-252.5 84q-129 0 -220 -91t-91 -220q0 -115 53 -186t133 -108.5t207 -74.5q300 -95 465.5 -238t165.5 -417q0 -209 -95 -374t-262 -256t-372 -91q-177 0 -336.5 95t-255.5 254t-96 339q0 4 4 16t4 17z" />
    <glyph glyph-name="t" unicode="t" horiz-adv-x="1376" 
d="M516 0v1966h-467v279h467v786h303v-786h524v-279h-524v-1966h-303z" />
    <glyph glyph-name="u" unicode="u" horiz-adv-x="2466" 
d="M2236 2245v-2245h-286v352q-106 -206 -303.5 -307.5t-442.5 -101.5q-146 0 -277.5 40t-260 132.5t-248.5 236.5q-156 167 -156 705v1188h303v-1188q0 -159 19 -275.5t80 -216.5q187 -327 581 -327q166 0 309 72t240 206q139 189 139 541v1188h303z" />
    <glyph glyph-name="v" unicode="v" horiz-adv-x="2277" 
d="M975 0l-942 2245h327l779 -1860l770 1860h327l-942 -2245h-319z" />
    <glyph glyph-name="w" unicode="w" horiz-adv-x="3416" 
d="M877 0l-844 2245h319l705 -1876l516 1597h254l516 -1597l713 1876h319l-852 -2245h-344l-483 1491l-467 -1491h-352z" />
    <glyph glyph-name="x" unicode="x" horiz-adv-x="1950" 
d="M33 0l770 1139l-770 1106h360l590 -869l598 869h352l-770 -1106l770 -1139h-352l-598 901l-590 -901h-360z" />
    <glyph glyph-name="y" unicode="y" horiz-adv-x="2089" 
d="M1835 2245h328l-1295 -3031h-319l352 860l-860 2171h319l721 -1786z" />
    <glyph glyph-name="z" unicode="z" horiz-adv-x="1753" 
d="M41 0v270l1212 1696h-1171v279h1540v-279l-1204 -1687h1286v-279h-1663z" />
    <glyph glyph-name="braceleft" unicode="{" horiz-adv-x="1425" 
d="M492 1720v688q0 226 48 360.5t169.5 198.5t339.5 64h65q-179 -54 -253.5 -169.5t-74.5 -305.5v-729q0 -248 -72.5 -382.5t-295.5 -191.5q215 -40 291.5 -161.5t76.5 -354.5v-786q0 -203 68.5 -309t259.5 -166q-172 0 -273 18t-194 88q-99 73 -127 180t-28 271v778
q0 113 -15 177t-76 134q-105 120 -245 131q145 50 213 107q82 65 102.5 143t20.5 217z" />
    <glyph glyph-name="bar" unicode="|" horiz-adv-x="2802" 
d="M1245 0v3031h262v-3031h-262z" />
    <glyph glyph-name="braceright" unicode="}" horiz-adv-x="1425" 
d="M475 1827v729q0 192 -73.5 306.5t-245.5 168.5h57q214 0 335.5 -64t171.5 -199.5t50 -359.5v-688q0 -139 20.5 -216.5t102.5 -143.5q76 -65 213 -107q-139 -11 -246 -131q-60 -70 -75 -134t-15 -177v-778q0 -164 -28.5 -271t-127.5 -180q-96 -70 -195 -88t-263 -18
q180 60 249.5 166.5t69.5 308.5v786q0 231 77 353.5t292 162.5q-222 57 -295.5 191.5t-73.5 382.5z" />
    <glyph glyph-name="asciitilde" unicode="~" horiz-adv-x="2564" 
d="M2105 1606l172 -197q-251 -451 -581 -451q-51 0 -124.5 18.5t-130 39.5t-166.5 67t-136 56q-138 55 -200.5 76.5t-143.5 21.5q-139 0 -223 -91.5t-195 -277.5l-164 197q117 218 252.5 350.5t329.5 132.5q99 0 215 -37.5t289 -114t250.5 -105.5t146.5 -29q218 0 409 344z
" />
    <glyph glyph-name="bullet" unicode="&#x2022;" horiz-adv-x="2466" 
d="M1999 1229q0 -202 -101.5 -375.5t-277 -276t-383.5 -102.5q-201 0 -375 102.5t-276.5 276.5t-102.5 375q0 208 102.5 383.5t276 277t375.5 101.5q158 0 298 -58t244 -162t162 -244t58 -298z" />
    <glyph glyph-name="quoteleft" unicode="&#x2018;" horiz-adv-x="1516" 
d="M1065 2236h-303l-361 795h304z" />
    <glyph glyph-name="quoteright" unicode="&#x2019;" horiz-adv-x="1565" 
d="M377 2236l360 795h303l-360 -795h-303z" />
    <glyph glyph-name="quotedblleft" unicode="&#x201c;" horiz-adv-x="2179" 
d="M1663 2236h-303l-361 795h304zM1057 2236h-303l-361 795h303z" />
    <glyph glyph-name="quotedblright" unicode="&#x201d;" horiz-adv-x="2138" 
d="M360 2236l345 795h303l-361 -795h-287zM950 2236l361 795h303l-361 -795h-303z" />
    <glyph glyph-name="emdash" unicode="&#x2013;" horiz-adv-x="2466" 
d="M106 1368h2048v-270h-2048v270z" />
    <glyph glyph-name="endash" unicode="&#x2014;" horiz-adv-x="4317" 
d="M98 1368h4096v-270h-4096v270z" />
    <glyph glyph-name="exclamdown" unicode="&#xa1;" horiz-adv-x="2376" 
d="M664 0l483 983l-1139 2048h336l959 -1737l786 1737h328l-1418 -3031h-335zM549 3359v278h1286v-278h-1286z" />
    <glyph glyph-name="cent" unicode="&#xa2;" horiz-adv-x="2138" 
d="M1835 2245h328l-1295 -3031h-319l352 860l-860 2171h319l721 -1786zM483 2564v270h1164v-270h-1164z" />
    <glyph glyph-name="sterling" unicode="&#xa3;" horiz-adv-x="1991" 
d="M1663 3031v-2179q-6 -104 -10 -178.5t-17.5 -146.5t-46 -142t-90.5 -139q-240 -303 -647 -303q-218 0 -401 102.5t-290.5 279.5t-111.5 396h295q19 -214 172 -348.5t369 -134.5q147 0 266.5 81t175.5 222q33 108 33 286v2204h303z" />
    <glyph glyph-name="currency" unicode="&#xa4;" horiz-adv-x="3080" 
d="M131 451l172 172q-197 295 -197 606q0 182 45.5 327t151.5 295l-172 172l213 222l180 -181q265 205 631 205q304 0 598 -205l180 181l213 -222l-180 -172q197 -289 197 -639q0 -306 -197 -589l180 -172l-213 -213l-180 172q-294 -205 -639 -205q-288 0 -590 205
l-180 -172zM1868 1245q0 188 -96.5 356t-260 270.5t-348.5 102.5h-8l-16 -8q-202 0 -374 -97t-272 -264t-100 -368l8 -8l-8 -17q0 -187 103 -351.5t274 -262.5t360 -98q201 4 371.5 103t268.5 268t98 374z" />
    <glyph glyph-name="yen" unicode="&#xa5;" horiz-adv-x="1950" 
d="M311 3031h1254v467h303v-745h-1254v-2753h-303v3031z" />
    <glyph glyph-name="brokenbar" unicode="&#xa6;" horiz-adv-x="3744" 
d="M1245 0v1212h262v-1212h-262zM1245 1819v1212h262v-1212h-262z" />
    <glyph glyph-name="section" unicode="&#xa7;" horiz-adv-x="3416" 
d="M1974 2482h-286q0 93 -65.5 162t-164 105t-188.5 36h-41q-165 0 -275 -102t-110 -275q0 -127 76 -209.5t210 -150.5l517 -254q159 -78 268 -151.5t182.5 -186t73.5 -260.5q0 -166 -94.5 -335t-241.5 -255q98 -79 155.5 -198.5t57.5 -243.5q0 -218 -104.5 -386.5
t-283 -259.5t-390.5 -91q-231 0 -422 111t-300.5 303t-113.5 429h287q0 -147 67.5 -273t186 -201t262.5 -75h66q123 0 228.5 53t167.5 151.5t62 230.5q0 152 -112.5 243t-313.5 191l-663 344q-312 156 -312 450q0 378 361 631q-75 64 -119.5 179.5t-44.5 222.5
q0 188 92.5 340t251 237.5t344.5 85.5q173 0 341 -75t276 -211t112 -312zM918 1106l720 -361q98 55 168 170t70 224q0 148 -73.5 223.5t-237.5 161.5l-672 336q-107 -64 -176.5 -182t-69.5 -244q0 -115 69.5 -186.5t201.5 -141.5z" />
    <glyph glyph-name="dieresis" unicode="&#xa8;" horiz-adv-x="2179" 
d="M311 0v3031h1655v-278h-1352v-1090h1311v-270h-1311v-1114h1352v-279h-1655zM639 3817h303v-516h-303v516zM1393 3817h303v-516h-303v516z" />
    <glyph glyph-name="copyright" unicode="&#xa9;" horiz-adv-x="4170" 
d="M1532 -57q-321 0 -605.5 120.5t-505 340t-341.5 505.5t-121 607q0 421 211 781t575 571.5t787 211.5q425 0 785.5 -211t570 -571.5t209.5 -781.5q0 -426 -209.5 -788.5t-570 -573.5t-785.5 -211zM1532 139q373 0 690.5 185t501.5 502t184 690q0 371 -184.5 689
t-501.5 502.5t-690 184.5t-690 -184.5t-501.5 -502.5t-184.5 -689q0 -373 184 -690t501.5 -502t690.5 -185zM2105 1229h222q-20 -179 -122.5 -317.5t-260 -213.5t-338.5 -75q-258 0 -455.5 118.5t-305.5 326.5t-108 464q0 394 229.5 643.5t622.5 249.5q291 0 493 -156.5
t245 -433.5h-222q-36 183 -178.5 296.5t-329.5 113.5q-201 0 -343.5 -94.5t-214.5 -255.5t-72 -363q0 -193 75.5 -358t221.5 -264t342 -99q123 0 232 52.5t180 146.5t87 219z" />
    <glyph glyph-name="ordfeminine" unicode="&#xaa;" horiz-adv-x="3318" 
d="M459 1393q35 -317 218.5 -583t465 -419t594.5 -153q203 0 398 68t364.5 196.5t285.5 292.5h336q-128 -249 -344.5 -443.5t-487 -301.5t-552.5 -107q-435 0 -800.5 208.5t-577.5 572.5t-212 800q0 420 211 779t572 568t782 209q490 0 877 -254q164 -107 316 -264t208 -309
h-336q-111 166 -281.5 287t-372 183t-403.5 62q-310 0 -585.5 -153t-453 -412t-214.5 -557h1540v-270h-1548z" />
    <glyph glyph-name="guillemotleft" unicode="&#xab;" horiz-adv-x="2376" 
d="M631 418l-467 819l467 811l237 -123l-385 -688l385 -688zM1335 418l-458 819l458 811l246 -123l-385 -688l385 -688z" />
    <glyph glyph-name="logicalnot" unicode="&#xac;" horiz-adv-x="3367" 
d="M1966 680v795h-1753v311h2064v-1106h-311z" />
    <glyph glyph-name="registered" unicode="&#xae;" horiz-adv-x="4170" 
d="M1532 -57q-321 0 -605.5 120.5t-505 340t-341.5 505.5t-121 607q0 421 211 781t575 571.5t787 211.5q425 0 785.5 -211t570 -571.5t209.5 -781.5q0 -426 -209.5 -788.5t-570 -573.5t-785.5 -211zM1532 139q373 0 690.5 185t501.5 502t184 690q0 371 -184.5 689
t-501.5 502.5t-690 184.5t-690 -184.5t-501.5 -502.5t-184.5 -689q0 -373 184 -690t501.5 -502t690.5 -185zM1786 1450l524 -811h-254l-500 811h-393v-811h-213v1753h762q282 0 426 -90q95 -53 146 -156t51 -221q0 -461 -549 -475zM1163 1614h328q19 0 70 -4t77 -4
q484 0 484 327q0 183 -125.5 243t-333.5 60h-500v-622z" />
    <glyph glyph-name="macron" unicode="&#xaf;" horiz-adv-x="950" 
d="M311 0v3031h303v-3031h-303zM16 3817h303v-516h-303v516zM614 3817h304v-516h-304v516z" />
    <glyph glyph-name="degree" unicode="&#xb0;" horiz-adv-x="2228" 
d="M1434 2417q0 -167 -83.5 -309.5t-225 -224t-306.5 -81.5t-306.5 82t-224.5 224t-83 309q0 164 83 306t225 225t306 83t306 -83t225.5 -225t83.5 -306zM1270 2417q0 118 -61 222.5t-165.5 166t-224.5 61.5t-224.5 -61.5t-165 -164.5t-60.5 -224q0 -125 61 -228.5
t164.5 -163t224.5 -59.5t224.5 59.5t165 164.5t61.5 227z" />
    <glyph glyph-name="plusminus" unicode="&#xb1;" horiz-adv-x="3367" 
d="M1090 1606v663h311v-663h876v-312h-876v-671h-311v671h-877v312h877zM213 0v311h2064v-311h-2064z" />
    <glyph glyph-name="twosuperior" unicode="&#xb2;" horiz-adv-x="999" 
d="M311 0v3031h303v-3031h-303z" />
    <glyph glyph-name="threesuperior" unicode="&#xb3;" horiz-adv-x="860" 
d="M262 0v2245h303v-2245h-303zM262 2515v516h303v-516h-303z" />
    <glyph glyph-name="acute" unicode="&#xb4;" horiz-adv-x="1614" 
d="M1262 2245v401h303v-664h-1000v-1982h-303v2245h1000z" />
    <glyph glyph-name="mu" unicode="&#xb5;" horiz-adv-x="3416" 
d="M1933 1057v1188h303v-2245h-286v352h-8q-67 -138 -180 -230t-257 -135.5t-301 -43.5q-366 0 -639 262v-991h-303v3031h303v-1188q0 -159 19 -275.5t80 -216.5q187 -327 581 -327q166 0 309 72t240 206q139 189 139 541z" />
    <glyph glyph-name="paragraph" unicode="&#xb6;" horiz-adv-x="3129" 
d="M942 -524v1982l-16 -8q-199 0 -377.5 108.5t-285.5 291t-107 386.5q0 170 68.5 331t193.5 267q132 123 270.5 156.5t376.5 40.5h950v-3555h-303v3277h-467v-3277h-303z" />
    <glyph glyph-name="periodcentered" unicode="&#xb7;" horiz-adv-x="1565" 
d="M418 975v516h303v-516h-303z" />
    <glyph glyph-name="cedilla" unicode="&#xb8;" horiz-adv-x="2654" 
d="M2507 1016h-2032q9 -208 132 -387t317 -285t395 -106q167 0 328.5 60t287 172t187.5 259h319q-76 -221 -243.5 -401t-389.5 -282.5t-456 -102.5q-321 0 -592.5 157.5t-429.5 429t-158 592.5q0 317 156 587.5t425 427.5t590 157q262 0 493.5 -113t408.5 -321
q144 -185 199.5 -382t62.5 -462zM475 1286h1729q-40 199 -165.5 362t-308 257t-387.5 94t-391 -90.5t-313 -254.5t-164 -368zM836 3047h303v-516h-303v516zM1589 3047h303v-516h-303v516z" />
    <glyph glyph-name="onesuperior" unicode="&#xb9;" horiz-adv-x="4170" 
d="M311 0v3031h443l1360 -2515v2515h303v-3031h-336l-1467 2662v-2662h-303zM3293 1745q166 0 310.5 -86.5t228.5 -233t84 -311.5q0 -163 -87 -307.5t-232 -229.5t-304 -85q-168 0 -314 83.5t-231.5 228t-85.5 310.5q0 169 84 314.5t229.5 231t317.5 85.5zM3293 672
q119 0 220 61.5t157.5 165.5t56.5 223q0 120 -57 222.5t-157 161.5t-220 59q-189 0 -315.5 -128.5t-126.5 -314.5q0 -120 57.5 -223.5t160 -165t224.5 -61.5zM2662 180h1254v-180h-1254v180z" />
    <glyph glyph-name="ordmasculine" unicode="&#xba;" horiz-adv-x="2605" 
d="M434 1016q28 -216 151.5 -395.5t316.5 -281t417 -101.5q483 0 786 417h336q-154 -329 -443 -520.5t-646 -191.5q-250 0 -472.5 87.5t-394.5 248.5t-267 377.5t-95 465.5q0 324 166.5 593t446 424t599.5 155q236 0 459 -89t393 -255t254 -385h-336q-116 197 -324.5 315.5
t-437.5 118.5q-164 0 -315.5 -51t-274 -146t-203 -227.5t-108.5 -288.5h1196v-270h-1204z" />
    <glyph glyph-name="guillemotright" unicode="&#xbb;" horiz-adv-x="2376" 
d="M1114 418l-237 131l385 688l-385 688l237 123l467 -811zM401 418l-237 131l385 688l-385 688l237 123l467 -811z" />
    <glyph glyph-name="onequarter" unicode="&#xbc;" horiz-adv-x="950" 
d="M573 2245v-2106q0 -159 -11.5 -268.5t-56.5 -218.5t-136 -209q-104 -109 -249.5 -169t-307.5 -60v294q204 8 304 104t127 238.5t27 354.5v2040h303zM270 2515v516h303v-516h-303z" />
    <glyph glyph-name="onehalf" unicode="&#xbd;" horiz-adv-x="2089" 
d="M90 852h328q5 -169 84.5 -309t216.5 -222.5t305 -82.5q169 0 313 78t227 215t83 305q0 121 -56 237.5t-149 196.5q-146 119 -467 196q-198 53 -316.5 98.5t-216.5 131.5q-254 217 -254 565q0 241 115 427.5t312 289t434 102.5q220 0 411 -108.5t303.5 -296t112.5 -406.5
v-8h-311q-12 149 -86 269t-195.5 187.5t-275.5 67.5q-145 0 -263 -70.5t-185.5 -190.5t-67.5 -263q0 -172 82 -274.5t199.5 -152.5t316.5 -105q54 -16 153 -45.5t161.5 -53.5t131.5 -64t135 -100q133 -114 206 -282.5t73 -347.5q0 -243 -125.5 -448.5t-337.5 -325
t-455 -119.5q-257 0 -472.5 116.5t-342.5 324.5t-127 468z" />
    <glyph glyph-name="threequarters" unicode="&#xbe;" horiz-adv-x="1565" 
d="M74 664h303l-8 -17q0 -166 125 -287.5t292 -121.5q106 0 196.5 48t144 135t53.5 193q0 185 -117.5 280.5t-317.5 145.5q-177 61 -254.5 94t-154.5 103q-180 166 -180 426q0 178 87 323t237 226.5t323 81.5q164 0 308.5 -83.5t229 -223.5t84.5 -299h-303q0 143 -99.5 227
t-252.5 84q-129 0 -220 -91t-91 -220q0 -115 53 -186t133 -108.5t207 -74.5q300 -95 465.5 -238t165.5 -417q0 -209 -95 -374t-262 -256t-372 -91q-177 0 -336.5 95t-255.5 254t-96 339q0 4 4 16t4 17z" />
    <glyph glyph-name="questiondown" unicode="&#xbf;" horiz-adv-x="999" 
d="M262 0v2245h303v-2245h-303zM-41 3031h303v-516h-303v516zM565 3031h303v-516h-303v516z" />
    <glyph glyph-name="Agrave" unicode="&#xc0;" horiz-adv-x="2843" 
d="M-57 0l1302 3031h336l1303 -3031h-328l-442 1016h-1409l-435 -1016h-327zM827 1294h1172l-582 1385z" />
    <glyph glyph-name="Aacute" unicode="&#xc1;" 
d="M311 0v3031h1671v-278h-1368v-1016h312q237 0 419 -20t384 -95q119 -41 235.5 -158.5t190 -278.5t73.5 -325q0 -140 -44 -271.5t-127.5 -241.5t-196.5 -183q-128 -77 -258 -110.5t-229 -40t-349 -13.5h-713zM614 279h377q28 0 74 -4.5t65 -4.5q314 0 500 99
q129 67 212 204.5t83 278.5q0 130 -46 239.5t-131 189t-200 120.5q-171 57 -491 57h-443v-1179z" />
    <glyph glyph-name="Acircumflex" unicode="&#xc2;" 
d="M311 0v3031h713q216 0 380.5 -30.5t307.5 -125.5q161 -104 256.5 -278.5t95.5 -368.5q0 -375 -335 -606q236 -96 367.5 -298.5t131.5 -463.5q0 -140 -44 -271.5t-127.5 -241.5t-196.5 -183q-128 -77 -258 -110.5t-229 -40t-349 -13.5h-713zM614 279h377q28 0 74 -4.5
t65 -4.5q314 0 500 99q129 67 212 204.5t83 278.5q0 130 -46 239.5t-131 189t-200 120.5q-171 57 -491 57h-443v-1179zM614 1737h328q13 0 41 -4t41 -4q325 0 492 98q108 54 176.5 173t68.5 245q0 123 -66 239.5t-171 177.5q-141 91 -434 91h-476v-1016z" />
    <glyph glyph-name="Atilde" unicode="&#xc3;" horiz-adv-x="1901" 
d="M311 3031h1557v-278h-1254v-2753h-303v3031z" />
    <glyph glyph-name="Adieresis" unicode="&#xc4;" horiz-adv-x="3031" 
d="M1352 3031h336l1114 -2761h278v-802h-303v532h-2507v-532h-303v802h279zM2466 279l-950 2408l-943 -2408h1893z" />
    <glyph glyph-name="Aring" unicode="&#xc5;" horiz-adv-x="2277" 
d="M311 0v3031h1655v-278h-1352v-1090h1311v-270h-1311v-1114h1352v-279h-1655z" />
    <glyph glyph-name="AE" unicode="&#xc6;" horiz-adv-x="3604" 
d="M1647 0v909l-304 385l-884 -1294h-377l1065 1556l-1065 1475h385l1180 -1712v1712h303v-1712l1179 1712h385l-1065 -1475l1065 -1556h-376l-885 1294l-303 -385v-909h-303z" />
    <glyph glyph-name="Ccedilla" unicode="&#xc7;" horiz-adv-x="2466" 
d="M1180 1458h-238v279h254q111 0 244 58t227 177.5t94 288.5q0 143 -67.5 263t-185.5 190.5t-263 70.5q-231 0 -388 -147t-177 -377h-303l-8 8q0 221 114.5 407.5t307 295t413.5 108.5q237 0 433.5 -102.5t311.5 -289t115 -427.5q0 -348 -254 -565q-73 -61 -147 -99
q102 -44 213 -131q133 -114 205.5 -281.5t72.5 -348.5q0 -185 -69.5 -348t-195 -285.5t-294.5 -191t-358 -68.5q-257 0 -472.5 116.5t-342.5 324.5t-127 468h319q0 -164 75 -307.5t212.5 -229.5t310.5 -86l17 9q169 0 312.5 78t226.5 215t83 305q0 121 -56 237.5t-148 196.5
q-118 96 -220.5 142t-246.5 46z" />
    <glyph glyph-name="Egrave" unicode="&#xc8;" horiz-adv-x="3031" 
d="M311 3031h303v-2662l1803 2662h303v-3031h-303v2515l-1696 -2515h-410v3031z" />
    <glyph glyph-name="Eacute" unicode="&#xc9;" horiz-adv-x="3031" 
d="M311 3031h303v-2662l1803 2662h303v-3031h-303v2515l-1696 -2515h-410v3031zM901 3359v278h1286v-278h-1286z" />
    <glyph glyph-name="Ecircumflex" unicode="&#xca;" 
d="M311 0v3031h303v-1745l1401 1745h385l-1196 -1475l1196 -1556h-377l-1015 1311l-394 -484v-827h-303z" />
    <glyph glyph-name="Edieresis" unicode="&#xcb;" horiz-adv-x="2843" 
d="M-57 0l1302 3031h336l1303 -3031h-328l-1139 2679l-1147 -2679h-327z" />
    <glyph glyph-name="Igrave" unicode="&#xcc;" horiz-adv-x="3744" 
d="M311 0v3031h467l1106 -2580l1106 2580h467v-3031h-303v2695l-1139 -2695h-262l-1139 2695v-2695h-303z" />
    <glyph glyph-name="Iacute" unicode="&#xcd;" horiz-adv-x="2802" 
d="M311 0v3031h303v-1335h1573v1335h303v-3031h-303v1425h-1573v-1425h-303z" />
    <glyph glyph-name="Icircumflex" unicode="&#xce;" horiz-adv-x="3654" 
d="M1802 3080q424 0 794.5 -208t591 -565.5t220.5 -782.5q0 -429 -217 -793t-588.5 -576t-800.5 -212q-311 0 -600 119t-515 334t-354 499.5t-128 603.5q0 435 215.5 797.5t583.5 573t798 210.5zM1810 2785v8q-348 -4 -649 -178t-477 -470.5t-176 -645.5q0 -253 104 -483
t288 -406t420 -274t490 -98q351 0 648.5 172.5t472 468.5t174.5 645q0 257 -104 489.5t-285.5 406t-416 269.5t-489.5 96z" />
    <glyph glyph-name="Idieresis" unicode="&#xcf;" horiz-adv-x="2802" 
d="M311 0v3031h2179v-3031h-303v2761h-1573v-2761h-303z" />
    <glyph glyph-name="Eth" unicode="&#xd0;" 
d="M311 0v3031h795q301 -8 475 -34.5t336 -129.5q193 -121 297 -318t104 -427q0 -448 -344 -705q-162 -118 -350 -157t-436 -39h-574v-1221h-303zM614 1499h525q200 0 342 23t264 100q85 54 145.5 133t92.5 173.5t32 193.5q0 195 -99.5 343.5t-277.5 221.5q-152 66 -409 66
h-615v-1254z" />
    <glyph glyph-name="Ntilde" unicode="&#xd1;" horiz-adv-x="3367" 
d="M3146 2253h-336q-111 167 -282 287.5t-373 182.5t-402 62q-253 0 -484.5 -101.5t-409 -280.5t-277 -407.5t-99.5 -471.5q0 -342 177 -640t474.5 -472t634.5 -174q202 0 398 68.5t365.5 196.5t285.5 292h336q-128 -249 -344.5 -443.5t-488 -301.5t-552.5 -107
q-434 0 -799.5 208.5t-577.5 572.5t-212 800q0 420 211 779t572 568t782 209q489 0 876 -254q160 -103 314.5 -262t210.5 -311z" />
    <glyph glyph-name="Ograve" unicode="&#xd2;" horiz-adv-x="1753" 
d="M729 0v2753h-696v278h1687v-278h-688v-2753h-303z" />
    <glyph glyph-name="Oacute" unicode="&#xd3;" horiz-adv-x="2376" 
d="M664 0l483 983l-1139 2048h336l959 -1737l786 1737h328l-1418 -3031h-335z" />
    <glyph glyph-name="Ocircumflex" unicode="&#xd4;" horiz-adv-x="3744" 
d="M2015 0h-303v369h-352q-316 0 -583.5 164.5t-423.5 441t-156 590.5q0 302 160 570t429 426.5t574 158.5h352v311h303v-311h352q305 0 574.5 -158.5t429.5 -426.5t160 -570q0 -314 -156 -590.5t-423.5 -441t-584.5 -164.5h-352v-369zM1712 664v1761h-352q-339 0 -598 -246
q-262 -250 -262 -614q0 -243 110.5 -450t308 -329t441.5 -122h352zM2015 664h352q244 0 441.5 121.5t308.5 329t111 450.5q0 364 -262 614q-259 246 -599 246h-352v-1761z" />
    <glyph glyph-name="Otilde" unicode="&#xd5;" 
d="M33 0l1032 1548l-967 1483h353l802 -1212l795 1212h352l-975 -1483l1041 -1548h-361l-852 1294l-860 -1294h-360z" />
    <glyph glyph-name="Odieresis" unicode="&#xd6;" horiz-adv-x="3031" 
d="M311 3031h303v-2761h1573v2761h303v-2761h459v-802h-303v532h-2335v3031z" />
    <glyph glyph-name="multiply" unicode="&#xd7;" horiz-adv-x="2466" 
d="M1851 1548v1483h303v-3031h-303v1278h-942q-202 0 -343 35.5t-229 112t-130.5 203t-42.5 313.5v1089h303v-1073q0 -244 108.5 -327t358.5 -83h917z" />
    <glyph glyph-name="Oslash" unicode="&#xd8;" horiz-adv-x="4121" 
d="M311 3031h303v-2761h1328v2761h303v-2761h1310v2761h303v-3031h-3547v3031z" />
    <glyph glyph-name="Ugrave" unicode="&#xd9;" horiz-adv-x="4407" 
d="M311 3031h303v-2761h1328v2761h303v-2761h1310v2761h303v-2761h459v-802h-303v532h-3703v3031z" />
    <glyph glyph-name="Uacute" unicode="&#xda;" horiz-adv-x="2843" 
d="M25 3031h991v-1221h516q247 0 436 -39.5t350 -156.5q344 -257 344 -705q0 -230 -104.5 -427.5t-296.5 -317.5q-164 -104 -337.5 -130t-473.5 -34h-737v2753h-688v278zM1016 1532v-1253h336q44 0 113.5 -4.5t107.5 -4.5q239 0 409 74q178 73 277.5 221t99.5 344
q0 152 -71.5 287t-198.5 213q-119 77 -262.5 100t-343.5 23h-467z" />
    <glyph glyph-name="Ucircumflex" unicode="&#xdb;" horiz-adv-x="3129" 
d="M311 3031h303v-1221h492q247 0 436 -39.5t350 -156.5q344 -257 344 -705q0 -230 -104.5 -427.5t-296.5 -317.5q-164 -104 -337.5 -130t-473.5 -34h-713v3031zM614 1532v-1253h312q44 0 113.5 -4.5t107.5 -4.5q239 0 409 74q178 73 277.5 221t99.5 344q0 152 -71.5 287
t-198.5 213q-119 77 -262.5 100t-343.5 23h-443zM2507 0v3031h303v-3031h-303z" />
    <glyph glyph-name="Udieresis" unicode="&#xdc;" 
d="M311 3031h303v-1221h574q247 0 436 -39.5t350 -156.5q344 -257 344 -705q0 -230 -104.5 -427.5t-296.5 -317.5q-164 -104 -337.5 -130t-473.5 -34h-795v3031zM614 1532v-1253h394q44 0 113.5 -4.5t107.5 -4.5q239 0 409 74q178 73 277.5 221t99.5 344q0 152 -71.5 287
t-198.5 213q-119 77 -262.5 100t-343.5 23h-525z" />
    <glyph glyph-name="Yacute" unicode="&#xdd;" horiz-adv-x="3416" 
d="M2900 1393h-1548v270h1540q-37 299 -214.5 557.5t-453 411.5t-586.5 153q-200 0 -402 -62t-372.5 -183t-281.5 -287h-336q56 152 210 310.5t314 262.5q387 254 877 254q421 0 781.5 -208.5t571.5 -568t211 -779.5q0 -436 -211.5 -800t-577 -572.5t-800.5 -208.5
q-282 0 -552.5 107t-487 301.5t-344.5 443.5h335q116 -164 285.5 -292t365.5 -196.5t398 -68.5q313 0 594.5 153t464 417.5t219.5 584.5z" />
    <glyph glyph-name="Thorn" unicode="&#xde;" horiz-adv-x="4743" 
d="M614 1425v-1425h-303v3031h303v-1335h648q34 296 168.5 549.5t348.5 441t488 290.5t576 103q422 0 793.5 -208t591.5 -566t220 -782q0 -429 -217 -793t-588 -576t-800 -212q-403 0 -763 198t-583 538.5t-244 745.5h-639zM2851 2785v8q-350 -4 -650.5 -178t-476.5 -470.5
t-176 -645.5q0 -339 180.5 -629.5t481.5 -461t641 -170.5q351 0 648.5 172.5t471.5 468.5t174 645q0 257 -104 489.5t-284 405t-416.5 269.5t-489.5 97z" />
    <glyph glyph-name="germandbls" unicode="&#xdf;" horiz-adv-x="2703" 
d="M2433 0h-303v2753h-483q-240 0 -395 -23.5t-285 -116.5q-130 -92 -208.5 -240.5t-78.5 -299.5q0 -201 104.5 -364.5t288.5 -250.5q209 -90 557 -90q16 0 53 4t54 4h90l-1032 -1376h-377l852 1130q-242 9 -447.5 132.5t-325.5 329.5t-120 448q0 268 122.5 489t352.5 355
q167 92 373.5 119.5t486.5 27.5h721v-3031z" />
    <glyph glyph-name="agrave" unicode="&#xe0;" horiz-adv-x="2753" 
d="M2507 2245v-2245h-287v426q-83 -155 -218.5 -263.5t-303 -164t-346.5 -55.5q-260 0 -521 122t-471 361q-78 88 -149.5 284.5t-71.5 428.5q0 138 39.5 278.5t95.5 249.5t103 152q443 475 966 475q180 0 349 -53.5t307 -160.5t221 -261v426h287zM1343 1999
q-242 0 -449.5 -118.5t-329.5 -322t-122 -444.5q0 -238 125.5 -440.5t335 -319t449.5 -116.5q229 0 429.5 119t319.5 319.5t119 429.5q0 244 -114.5 450t-316 324.5t-446.5 118.5z" />
    <glyph glyph-name="aacute" unicode="&#xe1;" horiz-adv-x="2753" 
d="M213 1106v811q0 209 13.5 334t69.5 247.5t179 254.5q103 115 249 196.5t312 122.5t324 41h958v-287h-983q-220 0 -422 -104t-315 -289q-106 -169 -106 -516v-148q107 242 356 383.5t520 141.5q318 0 590 -157t431 -430.5t159 -600.5q0 -312 -161 -580.5t-433.5 -425.5
t-585.5 -157q-320 0 -584.5 148.5t-417.5 415t-153 599.5zM1368 1999q-233 0 -430.5 -116.5t-313.5 -314.5t-116 -429q0 -243 110.5 -450t308 -329t441.5 -122q237 0 439.5 118t320 317.5t117.5 432.5q0 240 -115 446.5t-316.5 326.5t-445.5 120z" />
    <glyph glyph-name="acircumflex" unicode="&#xe2;" horiz-adv-x="2040" 
d="M1548 639q0 277 -245 369q-163 57 -500 57h-238v-811h279q12 0 51 -4t55 -4q112 0 229 17.5t164 47.5q100 64 152.5 137t52.5 191zM1417 1647q0 107 -33.5 164.5t-105.5 113.5q-121 66 -344 66h-369v-680h246q19 0 66 -4t73 -4q211 0 320 65q147 83 147 279zM262 0v2245
h713q167 0 285.5 -21t230.5 -94q120 -81 191 -209.5t71 -273.5q0 -264 -254 -451q176 -66 272.5 -216.5t96.5 -348.5q0 -155 -71.5 -293t-199.5 -223q-137 -77 -270 -96t-352 -19h-713z" />
    <glyph glyph-name="atilde" unicode="&#xe3;" horiz-adv-x="1614" 
d="M1565 2245v-263h-1000v-1982h-303v2245h1303z" />
    <glyph glyph-name="adieresis" unicode="&#xe4;" horiz-adv-x="2376" 
d="M270 0v-451h-303v705h221l836 1991h319l836 -1991h221v-705h-303v451h-1827zM1180 1860l-664 -1598h1335z" />
    <glyph glyph-name="aring" unicode="&#xe5;" horiz-adv-x="2654" 
d="M2474 1016h-2032q9 -209 132.5 -387.5t316.5 -284.5t395 -106q167 0 328.5 60t287 172t187.5 259h319q-76 -221 -243.5 -401t-389.5 -282.5t-456 -102.5q-321 0 -592.5 157.5t-429.5 429t-158 592.5q0 317 156 587t425.5 427.5t590.5 157.5q261 0 492.5 -113t408.5 -321
q143 -182 199 -380.5t63 -463.5zM442 1286h1729q-40 199 -164.5 362t-307.5 257t-388 94t-391.5 -90.5t-313.5 -254.5t-164 -368z" />
    <glyph glyph-name="ae" unicode="&#xe6;" horiz-adv-x="2990" 
d="M1343 0v492l-327 434l-639 -926h-352l811 1163l-754 1082h377l884 -1319v1319h304v-1319l884 1319h377l-754 -1082l812 -1163h-353l-639 926l-327 -434v-492h-304z" />
    <glyph glyph-name="ccedilla" unicode="&#xe7;" horiz-adv-x="1901" 
d="M893 1073h-131v246h139q151 0 272 96.5t121 272.5q0 63 -23.5 119.5t-67.5 100.5t-100.5 67.5t-119.5 23.5q-151 0 -251.5 -84t-100.5 -227h-303q0 159 84.5 299t229 223.5t308.5 83.5q174 0 323 -81t236.5 -225t87.5 -325q0 -160 -98 -297.5t-213 -185.5
q153 -47 265 -188t112 -328q0 -208 -94.5 -373t-261.5 -256.5t-373 -91.5q-177 0 -336.5 95t-255.5 254t-96 339q0 4 4 16t4 17h303l-8 -17q0 -166 125.5 -287.5t292.5 -121.5q106 0 196.5 48t143.5 135t53 193q0 128 -73 233.5t-183.5 165.5t-210.5 60z" />
    <glyph glyph-name="egrave" unicode="&#xe8;" horiz-adv-x="2466" 
d="M614 0h-360v2245h303v-1893l1270 1893h360v-2245h-303v1876z" />
    <glyph glyph-name="eacute" unicode="&#xe9;" horiz-adv-x="2466" 
d="M614 0h-360v2245h303v-1893l1270 1893h360v-2245h-303v1876zM639 2564v270h1163v-270h-1163z" />
    <glyph glyph-name="ecircumflex" unicode="&#xea;" horiz-adv-x="2138" 
d="M262 0v2245h303v-1344l1024 1344h393l-868 -1123l926 -1122h-393l-729 885l-353 -459v-426h-303z" />
    <glyph glyph-name="edieresis" unicode="&#xeb;" horiz-adv-x="2138" 
d="M1303 2245l942 -2245h-328l-778 1860l-770 -1860h-328l942 2245h320z" />
    <glyph glyph-name="igrave" unicode="&#xec;" horiz-adv-x="2990" 
d="M1606 0h-197l-844 1827v-1827h-303v2245h426l819 -1786l820 1786h426v-2245h-304v1827z" />
    <glyph glyph-name="iacute" unicode="&#xed;" horiz-adv-x="2327" 
d="M565 1065v-1065h-303v2245h303v-918h1196v918h303v-2245h-303v1065h-1196z" />
    <glyph glyph-name="icircumflex" unicode="&#xee;" horiz-adv-x="2703" 
d="M1352 2294q230 0 441 -90.5t374.5 -252.5t255.5 -373t92 -439q0 -314 -156 -590.5t-423.5 -441t-583.5 -164.5q-313 0 -585.5 157t-433.5 425.5t-161 580.5q0 322 158 595.5t430 433t592 159.5zM1352 1999q-244 0 -445.5 -120t-316.5 -326.5t-115 -446.5q0 -233 118 -433
t320 -317.5t439 -117.5q243 0 440.5 121.5t308.5 329t111 450.5q0 364 -262 614q-259 246 -598 246z" />
    <glyph glyph-name="idieresis" unicode="&#xef;" horiz-adv-x="2327" 
d="M565 1982v-1982h-303v2245h1802v-2245h-303v1982h-1196z" />
    <glyph glyph-name="eth" unicode="&#xf0;" horiz-adv-x="2843" 
d="M262 2245h287v-385q124 206 377.5 320t515.5 114q507 0 917 -434q67 -64 127 -177.5t97.5 -261t37.5 -307.5q0 -245 -94.5 -460.5t-263 -375t-389.5 -247.5t-465 -88q-166 0 -334 55t-304 163t-206 257v-1204h-303v3031zM1417 238q247 0 453.5 114.5t327 315.5t120.5 446
q0 242 -117.5 445t-319 321.5t-439.5 118.5q-243 0 -450.5 -111t-329 -308.5t-121.5 -440.5q0 -386 237 -623q266 -278 639 -278z" />
    <glyph glyph-name="ntilde" unicode="&#xf1;" horiz-adv-x="2703" 
d="M2154 655h336q-103 -218 -266 -378t-375 -247t-448 -87q-250 0 -472.5 87.5t-394.5 248.5t-267 377.5t-95 465.5q0 324 166.5 593t446 424t599.5 155q236 0 459.5 -89t393 -255t253.5 -385h-336q-116 197 -324.5 315.5t-436.5 118.5q-246 0 -457.5 -113t-336 -312.5
t-124.5 -443.5q0 -247 118.5 -451t324 -322.5t450.5 -118.5q483 0 786 417z" />
    <glyph glyph-name="ograve" unicode="&#xf2;" horiz-adv-x="1663" 
d="M33 2245h1581v-263h-639v-1982h-303v1982h-639v263z" />
    <glyph glyph-name="oacute" unicode="&#xf3;" horiz-adv-x="2138" 
d="M1835 2245h328l-1295 -3031h-319l352 860l-860 2171h319l721 -1786z" />
    <glyph glyph-name="ocircumflex" unicode="&#xf4;" horiz-adv-x="4268" 
d="M2277 3031v-1163q75 138 196.5 234t267 144t298.5 48q480 0 844 -434q94 -98 166 -307t72 -439q0 -246 -89.5 -461t-247.5 -374t-362 -247.5t-424 -88.5q-228 0 -431.5 109t-272.5 300l-17 -8v-1130h-303v1130l-16 8q-48 -130 -158 -222t-254 -139.5t-293 -47.5
q-219 0 -422.5 88.5t-361 247.5t-248 374t-90.5 461q0 230 71.5 437.5t166.5 308.5q364 434 843 434q233 0 441.5 -109.5t320.5 -316.5v1163h303zM1237 238q308 0 549 278q205 240 205 623q0 244 -103.5 441t-285 308t-398.5 111q-212 0 -389.5 -118.5t-279 -322
t-101.5 -444.5q0 -243 106.5 -445.5t289.5 -316.5t407 -114zM3015 238q222 0 405.5 114t290 316.5t106.5 445.5q0 241 -101 445t-278 322t-391 118q-218 0 -398.5 -111t-284 -308t-103.5 -441q0 -385 205 -623q239 -278 549 -278z" />
    <glyph glyph-name="otilde" unicode="&#xf5;" horiz-adv-x="1991" 
d="M33 0l770 1139l-770 1106h360l590 -869l598 869h352l-770 -1106l770 -1139h-352l-598 901l-590 -901h-360z" />
    <glyph glyph-name="odieresis" unicode="&#xf6;" horiz-adv-x="2417" 
d="M565 262h1196v1983h303v-1991h295v-705h-303v451h-1794v2245h303v-1983z" />
    <glyph glyph-name="divide" unicode="&#xf7;" horiz-adv-x="2089" 
d="M442 1425q0 -118 65 -177.5t173 -59.5h860v1057h303v-2245h-303v926h-926q-213 0 -344 131t-131 360v828h303v-820z" />
    <glyph glyph-name="oslash" unicode="&#xf8;" horiz-adv-x="3269" 
d="M565 262h918v1983h303v-1983h934v1983h303v-2245h-2761v2245h303v-1983z" />
    <glyph glyph-name="ugrave" unicode="&#xf9;" horiz-adv-x="3367" 
d="M565 262h918v1983h303v-1983h934v1983h303v-1991h295v-705h-303v451h-2753v2245h303v-1983z" />
    <glyph glyph-name="uacute" unicode="&#xfa;" horiz-adv-x="2327" 
d="M606 1982h-573v263h876v-926h336q220 0 354.5 -19.5t268.5 -95.5q270 -179 270 -524q0 -175 -71.5 -328t-198.5 -237q-138 -77 -266.5 -96t-356.5 -19h-639v1982zM909 1065v-811h205q402 0 500 57q213 122 213 353q0 122 -51.5 195t-145.5 140q-98 66 -385 66h-336z" />
    <glyph glyph-name="ucircumflex" unicode="&#xfb;" horiz-adv-x="2703" 
d="M565 1065v-811h279q401 0 499 57q213 122 213 353q0 122 -51 194t-145 141q-98 66 -385 66h-410zM565 1319h410q219 0 353.5 -19.5t268.5 -95.5q271 -180 271 -524q0 -173 -72 -327t-199 -238q-138 -77 -266 -96t-356 -19h-713v2245h303v-926zM2417 2245v-2245h-303v2245
h303z" />
    <glyph glyph-name="udieresis" unicode="&#xfc;" horiz-adv-x="2089" 
d="M565 1065v-811h279q401 0 499 57q213 122 213 353q0 122 -51 194t-145 141q-98 66 -385 66h-410zM565 1319h410q219 0 353.5 -19.5t268.5 -95.5q271 -180 271 -524q0 -173 -72 -327t-199 -238q-138 -77 -266 -96t-356 -19h-713v2245h303v-926z" />
    <glyph glyph-name="yacute" unicode="&#xfd;" horiz-adv-x="2654" 
d="M2163 1016h-1205v270h1196q-26 155 -107 288t-203 228t-274 146t-317 51q-149 0 -295.5 -53.5t-268.5 -152.5t-197 -228h-336q84 219 253.5 385t393 255t459.5 89q320 0 599.5 -155t446 -424t166.5 -593q0 -250 -95 -466.5t-266.5 -377t-394 -248t-473.5 -87.5
q-236 0 -448 87t-375 247t-266 378h336q303 -417 786 -417q224 0 417 101.5t316.5 281t151.5 395.5z" />
    <glyph glyph-name="thorn" unicode="&#xfe;" horiz-adv-x="3654" 
d="M565 1327h574q52 271 218 493t413 348t532 126q305 0 574 -158.5t429 -426.5t160 -570q0 -314 -156 -590.5t-423.5 -441t-583.5 -164.5q-305 0 -573 152t-431.5 410.5t-175.5 559.5h-557v-1065h-303v2245h303v-918zM2302 1999q-244 0 -445.5 -120t-316.5 -326.5
t-115 -446.5q0 -233 117.5 -432.5t320 -317.5t439.5 -118q244 0 441.5 122t308 329t110.5 450q0 364 -262 614q-259 246 -598 246z" />
    <glyph glyph-name="ydieresis" unicode="&#xff;" horiz-adv-x="2040" 
d="M1221 1180l-713 -1180h-328l598 934q-190 27 -319 106q-271 181 -271 525q0 174 71.5 327t199.5 238q136 77 265.5 96t356.5 19h713v-2245h-303v1991h-279q-401 0 -499 -58q-213 -120 -213 -352q0 -118 50.5 -191t145.5 -145q112 -74 385 -74q21 0 68.5 4.5t71.5 4.5z
" />
    <glyph glyph-name="guilsinglleft" unicode="&#x2039;" horiz-adv-x="2605" 
d="M590 1237l1696 -786v-295l-2081 950v262l2081 950v-303z" />
    <glyph glyph-name="guilsinglright" unicode="&#x203a;" 
d="M197 451l1695 786l-1695 778v303l2089 -950v-262l-2089 -950v295z" />
    <glyph glyph-name="dagger" unicode="&#x2020;" horiz-adv-x="1565" 
 />
    <glyph glyph-name="daggerdbl" unicode="&#x2021;" horiz-adv-x="1565" 
 />
    <glyph glyph-name="quotesinglbase" unicode="&#x201a;" horiz-adv-x="1565" 
 />
    <glyph glyph-name="quotedblbase" unicode="&#x201e;" horiz-adv-x="1565" 
 />
    <glyph glyph-name="ellipsis" unicode="&#x2026;" horiz-adv-x="1565" 
 />
    <glyph glyph-name="perthousand" unicode="&#x2030;" horiz-adv-x="1565" 
 />
    <glyph glyph-name="trademark" unicode="&#x2122;" horiz-adv-x="1565" 
 />
    <glyph glyph-name="nonbreakingspace" unicode="&#xa0;" horiz-adv-x="1475" 
 />
    <glyph glyph-name="afii10017" unicode="&#x410;" horiz-adv-x="2843" 
d="M-57 0l1302 3031h336l1303 -3031h-328l-442 1016h-1409l-435 -1016h-327zM827 1294h1172l-582 1385z" />
    <glyph glyph-name="afii10018" unicode="&#x411;" 
d="M311 0v3031h1671v-278h-1368v-1016h312q237 0 419 -20t384 -95q119 -41 235.5 -158.5t190 -278.5t73.5 -325q0 -140 -44 -271.5t-127.5 -241.5t-196.5 -183q-128 -77 -258 -110.5t-229 -40t-349 -13.5h-713zM614 279h377q28 0 74 -4.5t65 -4.5q314 0 500 99
q129 67 212 204.5t83 278.5q0 130 -46 239.5t-131 189t-200 120.5q-171 57 -491 57h-443v-1179z" />
    <glyph glyph-name="afii10019" unicode="&#x412;" 
d="M311 0v3031h713q216 0 380.5 -30.5t307.5 -125.5q161 -104 256.5 -278.5t95.5 -368.5q0 -375 -335 -606q236 -96 367.5 -298.5t131.5 -463.5q0 -140 -44 -271.5t-127.5 -241.5t-196.5 -183q-128 -77 -258 -110.5t-229 -40t-349 -13.5h-713zM614 279h377q28 0 74 -4.5
t65 -4.5q314 0 500 99q129 67 212 204.5t83 278.5q0 130 -46 239.5t-131 189t-200 120.5q-171 57 -491 57h-443v-1179zM614 1737h328q13 0 41 -4t41 -4q325 0 492 98q108 54 176.5 173t68.5 245q0 123 -66 239.5t-171 177.5q-141 91 -434 91h-476v-1016z" />
    <glyph glyph-name="afii10020" unicode="&#x413;" horiz-adv-x="1901" 
d="M311 3031h1557v-278h-1254v-2753h-303v3031z" />
    <glyph glyph-name="afii10021" unicode="&#x414;" horiz-adv-x="3031" 
d="M1352 3031h336l1114 -2761h278v-802h-303v532h-2507v-532h-303v802h279zM2466 279l-950 2408l-943 -2408h1893z" />
    <glyph glyph-name="afii10022" unicode="&#x415;" horiz-adv-x="2277" 
d="M311 0v3031h1655v-278h-1352v-1090h1311v-270h-1311v-1114h1352v-279h-1655z" />
    <glyph glyph-name="afii10024" unicode="&#x416;" horiz-adv-x="3604" 
d="M1647 0v909l-304 385l-884 -1294h-377l1065 1556l-1065 1475h385l1180 -1712v1712h303v-1712l1179 1712h385l-1065 -1475l1065 -1556h-376l-885 1294l-303 -385v-909h-303z" />
    <glyph glyph-name="afii10025" unicode="&#x417;" horiz-adv-x="2466" 
d="M1180 1458h-238v279h254q111 0 244 58t227 177.5t94 288.5q0 143 -67.5 263t-185.5 190.5t-263 70.5q-231 0 -388 -147t-177 -377h-303l-8 8q0 221 114.5 407.5t307 295t413.5 108.5q237 0 433.5 -102.5t311.5 -289t115 -427.5q0 -348 -254 -565q-73 -61 -147 -99
q102 -44 213 -131q133 -114 205.5 -281.5t72.5 -348.5q0 -185 -69.5 -348t-195 -285.5t-294.5 -191t-358 -68.5q-257 0 -472.5 116.5t-342.5 324.5t-127 468h319q0 -164 75 -307.5t212.5 -229.5t310.5 -86l17 9q169 0 312.5 78t226.5 215t83 305q0 121 -56 237.5t-148 196.5
q-118 96 -220.5 142t-246.5 46z" />
    <glyph glyph-name="afii10026" unicode="&#x418;" horiz-adv-x="3031" 
d="M311 3031h303v-2662l1803 2662h303v-3031h-303v2515l-1696 -2515h-410v3031z" />
    <glyph glyph-name="afii10027" unicode="&#x419;" horiz-adv-x="3031" 
d="M311 3031h303v-2662l1803 2662h303v-3031h-303v2515l-1696 -2515h-410v3031zM901 3359v278h1286v-278h-1286z" />
    <glyph glyph-name="afii10028" unicode="&#x41a;" 
d="M311 0v3031h303v-1745l1401 1745h385l-1196 -1475l1196 -1556h-377l-1015 1311l-394 -484v-827h-303z" />
    <glyph glyph-name="afii10029" unicode="&#x41b;" horiz-adv-x="2843" 
d="M-57 0l1302 3031h336l1303 -3031h-328l-1139 2679l-1147 -2679h-327z" />
    <glyph glyph-name="afii10030" unicode="&#x41c;" horiz-adv-x="3744" 
d="M311 0v3031h467l1106 -2580l1106 2580h467v-3031h-303v2695l-1139 -2695h-262l-1139 2695v-2695h-303z" />
    <glyph glyph-name="afii10031" unicode="&#x41d;" horiz-adv-x="2802" 
d="M311 0v3031h303v-1335h1573v1335h303v-3031h-303v1425h-1573v-1425h-303z" />
    <glyph glyph-name="afii10032" unicode="&#x41e;" horiz-adv-x="3654" 
d="M1802 3080q424 0 794.5 -208t591 -565.5t220.5 -782.5q0 -429 -217 -793t-588.5 -576t-800.5 -212q-311 0 -600 119t-515 334t-354 499.5t-128 603.5q0 435 215.5 797.5t583.5 573t798 210.5zM1810 2785v8q-348 -4 -649 -178t-477 -470.5t-176 -645.5q0 -253 104 -483
t288 -406t420 -274t490 -98q351 0 648.5 172.5t472 468.5t174.5 645q0 257 -104 489.5t-285.5 406t-416 269.5t-489.5 96z" />
    <glyph glyph-name="afii10033" unicode="&#x41f;" horiz-adv-x="2802" 
d="M311 0v3031h2179v-3031h-303v2761h-1573v-2761h-303z" />
    <glyph glyph-name="afii10034" unicode="&#x420;" 
d="M311 0v3031h795q301 -8 475 -34.5t336 -129.5q193 -121 297 -318t104 -427q0 -448 -344 -705q-162 -118 -350 -157t-436 -39h-574v-1221h-303zM614 1499h525q200 0 342 23t264 100q85 54 145.5 133t92.5 173.5t32 193.5q0 195 -99.5 343.5t-277.5 221.5q-152 66 -409 66
h-615v-1254z" />
    <glyph glyph-name="afii10035" unicode="&#x421;" horiz-adv-x="3367" 
d="M3146 2253h-336q-111 167 -282 287.5t-373 182.5t-402 62q-253 0 -484.5 -101.5t-409 -280.5t-277 -407.5t-99.5 -471.5q0 -342 177 -640t474.5 -472t634.5 -174q202 0 398 68.5t365.5 196.5t285.5 292h336q-128 -249 -344.5 -443.5t-488 -301.5t-552.5 -107
q-434 0 -799.5 208.5t-577.5 572.5t-212 800q0 420 211 779t572 568t782 209q489 0 876 -254q160 -103 314.5 -262t210.5 -311z" />
    <glyph glyph-name="afii10036" unicode="&#x422;" horiz-adv-x="1753" 
d="M729 0v2753h-696v278h1687v-278h-688v-2753h-303z" />
    <glyph glyph-name="afii10037" unicode="&#x423;" horiz-adv-x="2376" 
d="M664 0l483 983l-1139 2048h336l959 -1737l786 1737h328l-1418 -3031h-335z" />
    <glyph glyph-name="afii10038" unicode="&#x424;" horiz-adv-x="3744" 
d="M2015 0h-303v369h-352q-316 0 -583.5 164.5t-423.5 441t-156 590.5q0 302 160 570t429 426.5t574 158.5h352v311h303v-311h352q305 0 574.5 -158.5t429.5 -426.5t160 -570q0 -314 -156 -590.5t-423.5 -441t-584.5 -164.5h-352v-369zM1712 664v1761h-352q-339 0 -598 -246
q-262 -250 -262 -614q0 -243 110.5 -450t308 -329t441.5 -122h352zM2015 664h352q244 0 441.5 121.5t308.5 329t111 450.5q0 364 -262 614q-259 246 -599 246h-352v-1761z" />
    <glyph glyph-name="afii10039" unicode="&#x425;" 
d="M33 0l1032 1548l-967 1483h353l802 -1212l795 1212h352l-975 -1483l1041 -1548h-361l-852 1294l-860 -1294h-360z" />
    <glyph glyph-name="afii10040" unicode="&#x426;" horiz-adv-x="3031" 
d="M311 3031h303v-2761h1573v2761h303v-2761h459v-802h-303v532h-2335v3031z" />
    <glyph glyph-name="afii10041" unicode="&#x427;" horiz-adv-x="2466" 
d="M1851 1548v1483h303v-3031h-303v1278h-942q-202 0 -343 35.5t-229 112t-130.5 203t-42.5 313.5v1089h303v-1073q0 -244 108.5 -327t358.5 -83h917z" />
    <glyph glyph-name="afii10042" unicode="&#x428;" horiz-adv-x="4121" 
d="M311 3031h303v-2761h1328v2761h303v-2761h1310v2761h303v-3031h-3547v3031z" />
    <glyph glyph-name="afii10043" unicode="&#x429;" horiz-adv-x="4407" 
d="M311 3031h303v-2761h1328v2761h303v-2761h1310v2761h303v-2761h459v-802h-303v532h-3703v3031z" />
    <glyph glyph-name="afii10044" unicode="&#x42a;" horiz-adv-x="2843" 
d="M25 3031h991v-1221h516q247 0 436 -39.5t350 -156.5q344 -257 344 -705q0 -230 -104.5 -427.5t-296.5 -317.5q-164 -104 -337.5 -130t-473.5 -34h-737v2753h-688v278zM1016 1532v-1253h336q44 0 113.5 -4.5t107.5 -4.5q239 0 409 74q178 73 277.5 221t99.5 344
q0 152 -71.5 287t-198.5 213q-119 77 -262.5 100t-343.5 23h-467z" />
    <glyph glyph-name="afii10045" unicode="&#x42b;" horiz-adv-x="3129" 
d="M311 3031h303v-1221h492q247 0 436 -39.5t350 -156.5q344 -257 344 -705q0 -230 -104.5 -427.5t-296.5 -317.5q-164 -104 -337.5 -130t-473.5 -34h-713v3031zM614 1532v-1253h312q44 0 113.5 -4.5t107.5 -4.5q239 0 409 74q178 73 277.5 221t99.5 344q0 152 -71.5 287
t-198.5 213q-119 77 -262.5 100t-343.5 23h-443zM2507 0v3031h303v-3031h-303z" />
    <glyph glyph-name="afii10046" unicode="&#x42c;" 
d="M311 3031h303v-1221h574q247 0 436 -39.5t350 -156.5q344 -257 344 -705q0 -230 -104.5 -427.5t-296.5 -317.5q-164 -104 -337.5 -130t-473.5 -34h-795v3031zM614 1532v-1253h394q44 0 113.5 -4.5t107.5 -4.5q239 0 409 74q178 73 277.5 221t99.5 344q0 152 -71.5 287
t-198.5 213q-119 77 -262.5 100t-343.5 23h-525z" />
    <glyph glyph-name="afii10047" unicode="&#x42d;" horiz-adv-x="3416" 
d="M2900 1393h-1548v270h1540q-37 299 -214.5 557.5t-453 411.5t-586.5 153q-200 0 -402 -62t-372.5 -183t-281.5 -287h-336q56 152 210 310.5t314 262.5q387 254 877 254q421 0 781.5 -208.5t571.5 -568t211 -779.5q0 -436 -211.5 -800t-577 -572.5t-800.5 -208.5
q-282 0 -552.5 107t-487 301.5t-344.5 443.5h335q116 -164 285.5 -292t365.5 -196.5t398 -68.5q313 0 594.5 153t464 417.5t219.5 584.5z" />
    <glyph glyph-name="afii10048" unicode="&#x42e;" horiz-adv-x="4743" 
d="M614 1425v-1425h-303v3031h303v-1335h648q34 296 168.5 549.5t348.5 441t488 290.5t576 103q422 0 793.5 -208t591.5 -566t220 -782q0 -429 -217 -793t-588 -576t-800 -212q-403 0 -763 198t-583 538.5t-244 745.5h-639zM2851 2785v8q-350 -4 -650.5 -178t-476.5 -470.5
t-176 -645.5q0 -339 180.5 -629.5t481.5 -461t641 -170.5q351 0 648.5 172.5t471.5 468.5t174 645q0 257 -104 489.5t-284 405t-416.5 269.5t-489.5 97z" />
    <glyph glyph-name="afii10049" unicode="&#x42f;" horiz-adv-x="2703" 
d="M2433 0h-303v2753h-483q-240 0 -395 -23.5t-285 -116.5q-130 -92 -208.5 -240.5t-78.5 -299.5q0 -201 104.5 -364.5t288.5 -250.5q209 -90 557 -90q16 0 53 4t54 4h90l-1032 -1376h-377l852 1130q-242 9 -447.5 132.5t-325.5 329.5t-120 448q0 268 122.5 489t352.5 355
q167 92 373.5 119.5t486.5 27.5h721v-3031z" />
    <glyph glyph-name="afii10065" unicode="&#x430;" horiz-adv-x="2753" 
d="M2507 2245v-2245h-287v426q-83 -155 -218.5 -263.5t-303 -164t-346.5 -55.5q-260 0 -521 122t-471 361q-78 88 -149.5 284.5t-71.5 428.5q0 138 39.5 278.5t95.5 249.5t103 152q443 475 966 475q180 0 349 -53.5t307 -160.5t221 -261v426h287zM1343 1999
q-242 0 -449.5 -118.5t-329.5 -322t-122 -444.5q0 -238 125.5 -440.5t335 -319t449.5 -116.5q229 0 429.5 119t319.5 319.5t119 429.5q0 244 -114.5 450t-316 324.5t-446.5 118.5z" />
    <glyph glyph-name="afii10066" unicode="&#x431;" horiz-adv-x="2753" 
d="M213 1106v811q0 209 13.5 334t69.5 247.5t179 254.5q103 115 249 196.5t312 122.5t324 41h958v-287h-983q-220 0 -422 -104t-315 -289q-106 -169 -106 -516v-148q107 242 356 383.5t520 141.5q318 0 590 -157t431 -430.5t159 -600.5q0 -312 -161 -580.5t-433.5 -425.5
t-585.5 -157q-320 0 -584.5 148.5t-417.5 415t-153 599.5zM1368 1999q-233 0 -430.5 -116.5t-313.5 -314.5t-116 -429q0 -243 110.5 -450t308 -329t441.5 -122q237 0 439.5 118t320 317.5t117.5 432.5q0 240 -115 446.5t-316.5 326.5t-445.5 120z" />
    <glyph glyph-name="afii10067" unicode="&#x432;" horiz-adv-x="2040" 
d="M1548 639q0 277 -245 369q-163 57 -500 57h-238v-811h279q12 0 51 -4t55 -4q112 0 229 17.5t164 47.5q100 64 152.5 137t52.5 191zM1417 1647q0 107 -33.5 164.5t-105.5 113.5q-121 66 -344 66h-369v-680h246q19 0 66 -4t73 -4q211 0 320 65q147 83 147 279zM262 0v2245
h713q167 0 285.5 -21t230.5 -94q120 -81 191 -209.5t71 -273.5q0 -264 -254 -451q176 -66 272.5 -216.5t96.5 -348.5q0 -155 -71.5 -293t-199.5 -223q-137 -77 -270 -96t-352 -19h-713z" />
    <glyph glyph-name="afii10068" unicode="&#x433;" horiz-adv-x="1614" 
d="M1565 2245v-263h-1000v-1982h-303v2245h1303z" />
    <glyph glyph-name="afii10069" unicode="&#x434;" horiz-adv-x="2376" 
d="M270 0v-451h-303v705h221l836 1991h319l836 -1991h221v-705h-303v451h-1827zM1180 1860l-664 -1598h1335z" />
    <glyph glyph-name="afii10070" unicode="&#x435;" horiz-adv-x="2654" 
d="M2474 1016h-2032q9 -209 132.5 -387.5t316.5 -284.5t395 -106q167 0 328.5 60t287 172t187.5 259h319q-76 -221 -243.5 -401t-389.5 -282.5t-456 -102.5q-321 0 -592.5 157.5t-429.5 429t-158 592.5q0 317 156 587t425.5 427.5t590.5 157.5q261 0 492.5 -113t408.5 -321
q143 -182 199 -380.5t63 -463.5zM442 1286h1729q-40 199 -164.5 362t-307.5 257t-388 94t-391.5 -90.5t-313.5 -254.5t-164 -368z" />
    <glyph glyph-name="afii10072" unicode="&#x436;" horiz-adv-x="2990" 
d="M1343 0v492l-327 434l-639 -926h-352l811 1163l-754 1082h377l884 -1319v1319h304v-1319l884 1319h377l-754 -1082l812 -1163h-353l-639 926l-327 -434v-492h-304z" />
    <glyph glyph-name="afii10073" unicode="&#x437;" horiz-adv-x="1901" 
d="M893 1073h-131v246h139q151 0 272 96.5t121 272.5q0 63 -23.5 119.5t-67.5 100.5t-100.5 67.5t-119.5 23.5q-151 0 -251.5 -84t-100.5 -227h-303q0 159 84.5 299t229 223.5t308.5 83.5q174 0 323 -81t236.5 -225t87.5 -325q0 -160 -98 -297.5t-213 -185.5
q153 -47 265 -188t112 -328q0 -208 -94.5 -373t-261.5 -256.5t-373 -91.5q-177 0 -336.5 95t-255.5 254t-96 339q0 4 4 16t4 17h303l-8 -17q0 -166 125.5 -287.5t292.5 -121.5q106 0 196.5 48t143.5 135t53 193q0 128 -73 233.5t-183.5 165.5t-210.5 60z" />
    <glyph glyph-name="afii10074" unicode="&#x438;" horiz-adv-x="2466" 
d="M614 0h-360v2245h303v-1893l1270 1893h360v-2245h-303v1876z" />
    <glyph glyph-name="afii10075" unicode="&#x439;" horiz-adv-x="2466" 
d="M614 0h-360v2245h303v-1893l1270 1893h360v-2245h-303v1876zM639 2564v270h1163v-270h-1163z" />
    <glyph glyph-name="afii10076" unicode="&#x43a;" horiz-adv-x="2138" 
d="M262 0v2245h303v-1344l1024 1344h393l-868 -1123l926 -1122h-393l-729 885l-353 -459v-426h-303z" />
    <glyph glyph-name="afii10077" unicode="&#x43b;" horiz-adv-x="2138" 
d="M1303 2245l942 -2245h-328l-778 1860l-770 -1860h-328l942 2245h320z" />
    <glyph glyph-name="afii10078" unicode="&#x43c;" horiz-adv-x="2990" 
d="M1606 0h-197l-844 1827v-1827h-303v2245h426l819 -1786l820 1786h426v-2245h-304v1827z" />
    <glyph glyph-name="afii10079" unicode="&#x43d;" horiz-adv-x="2327" 
d="M565 1065v-1065h-303v2245h303v-918h1196v918h303v-2245h-303v1065h-1196z" />
    <glyph glyph-name="afii10080" unicode="&#x43e;" horiz-adv-x="2703" 
d="M1352 2294q230 0 441 -90.5t374.5 -252.5t255.5 -373t92 -439q0 -314 -156 -590.5t-423.5 -441t-583.5 -164.5q-313 0 -585.5 157t-433.5 425.5t-161 580.5q0 322 158 595.5t430 433t592 159.5zM1352 1999q-244 0 -445.5 -120t-316.5 -326.5t-115 -446.5q0 -233 118 -433
t320 -317.5t439 -117.5q243 0 440.5 121.5t308.5 329t111 450.5q0 364 -262 614q-259 246 -598 246z" />
    <glyph glyph-name="afii10081" unicode="&#x43f;" horiz-adv-x="2327" 
d="M565 1982v-1982h-303v2245h1802v-2245h-303v1982h-1196z" />
    <glyph glyph-name="afii10082" unicode="&#x440;" horiz-adv-x="2843" 
d="M262 2245h287v-385q124 206 377.5 320t515.5 114q507 0 917 -434q67 -64 127 -177.5t97.5 -261t37.5 -307.5q0 -245 -94.5 -460.5t-263 -375t-389.5 -247.5t-465 -88q-166 0 -334 55t-304 163t-206 257v-1204h-303v3031zM1417 238q247 0 453.5 114.5t327 315.5t120.5 446
q0 242 -117.5 445t-319 321.5t-439.5 118.5q-243 0 -450.5 -111t-329 -308.5t-121.5 -440.5q0 -386 237 -623q266 -278 639 -278z" />
    <glyph glyph-name="afii10083" unicode="&#x441;" horiz-adv-x="2703" 
d="M2154 655h336q-103 -218 -266 -378t-375 -247t-448 -87q-250 0 -472.5 87.5t-394.5 248.5t-267 377.5t-95 465.5q0 324 166.5 593t446 424t599.5 155q236 0 459.5 -89t393 -255t253.5 -385h-336q-116 197 -324.5 315.5t-436.5 118.5q-246 0 -457.5 -113t-336 -312.5
t-124.5 -443.5q0 -247 118.5 -451t324 -322.5t450.5 -118.5q483 0 786 417z" />
    <glyph glyph-name="afii10084" unicode="&#x442;" horiz-adv-x="1663" 
d="M33 2245h1581v-263h-639v-1982h-303v1982h-639v263z" />
    <glyph glyph-name="afii10085" unicode="&#x443;" horiz-adv-x="2138" 
d="M1835 2245h328l-1295 -3031h-319l352 860l-860 2171h319l721 -1786z" />
    <glyph glyph-name="afii10086" unicode="&#x444;" horiz-adv-x="4268" 
d="M2277 3031v-1163q75 138 196.5 234t267 144t298.5 48q480 0 844 -434q94 -98 166 -307t72 -439q0 -246 -89.5 -461t-247.5 -374t-362 -247.5t-424 -88.5q-228 0 -431.5 109t-272.5 300l-17 -8v-1130h-303v1130l-16 8q-48 -130 -158 -222t-254 -139.5t-293 -47.5
q-219 0 -422.5 88.5t-361 247.5t-248 374t-90.5 461q0 230 71.5 437.5t166.5 308.5q364 434 843 434q233 0 441.5 -109.5t320.5 -316.5v1163h303zM1237 238q308 0 549 278q205 240 205 623q0 244 -103.5 441t-285 308t-398.5 111q-212 0 -389.5 -118.5t-279 -322
t-101.5 -444.5q0 -243 106.5 -445.5t289.5 -316.5t407 -114zM3015 238q222 0 405.5 114t290 316.5t106.5 445.5q0 241 -101 445t-278 322t-391 118q-218 0 -398.5 -111t-284 -308t-103.5 -441q0 -385 205 -623q239 -278 549 -278z" />
    <glyph glyph-name="afii10087" unicode="&#x445;" horiz-adv-x="1991" 
d="M33 0l770 1139l-770 1106h360l590 -869l598 869h352l-770 -1106l770 -1139h-352l-598 901l-590 -901h-360z" />
    <glyph glyph-name="afii10088" unicode="&#x446;" horiz-adv-x="2417" 
d="M565 262h1196v1983h303v-1991h295v-705h-303v451h-1794v2245h303v-1983z" />
    <glyph glyph-name="afii10089" unicode="&#x447;" horiz-adv-x="2089" 
d="M442 1425q0 -118 65 -177.5t173 -59.5h860v1057h303v-2245h-303v926h-926q-213 0 -344 131t-131 360v828h303v-820z" />
    <glyph glyph-name="afii10090" unicode="&#x448;" horiz-adv-x="3269" 
d="M565 262h918v1983h303v-1983h934v1983h303v-2245h-2761v2245h303v-1983z" />
    <glyph glyph-name="afii10091" unicode="&#x449;" horiz-adv-x="3367" 
d="M565 262h918v1983h303v-1983h934v1983h303v-1991h295v-705h-303v451h-2753v2245h303v-1983z" />
    <glyph glyph-name="afii10092" unicode="&#x44a;" horiz-adv-x="2327" 
d="M606 1982h-573v263h876v-926h336q220 0 354.5 -19.5t268.5 -95.5q270 -179 270 -524q0 -175 -71.5 -328t-198.5 -237q-138 -77 -266.5 -96t-356.5 -19h-639v1982zM909 1065v-811h205q402 0 500 57q213 122 213 353q0 122 -51.5 195t-145.5 140q-98 66 -385 66h-336z" />
    <glyph glyph-name="afii10093" unicode="&#x44b;" horiz-adv-x="2703" 
d="M565 1065v-811h279q401 0 499 57q213 122 213 353q0 122 -51 194t-145 141q-98 66 -385 66h-410zM565 1319h410q219 0 353.5 -19.5t268.5 -95.5q271 -180 271 -524q0 -173 -72 -327t-199 -238q-138 -77 -266 -96t-356 -19h-713v2245h303v-926zM2417 2245v-2245h-303v2245
h303z" />
    <glyph glyph-name="afii10094" unicode="&#x44c;" horiz-adv-x="2089" 
d="M565 1065v-811h279q401 0 499 57q213 122 213 353q0 122 -51 194t-145 141q-98 66 -385 66h-410zM565 1319h410q219 0 353.5 -19.5t268.5 -95.5q271 -180 271 -524q0 -173 -72 -327t-199 -238q-138 -77 -266 -96t-356 -19h-713v2245h303v-926z" />
    <glyph glyph-name="afii10095" unicode="&#x44d;" horiz-adv-x="2654" 
d="M2163 1016h-1205v270h1196q-26 155 -107 288t-203 228t-274 146t-317 51q-149 0 -295.5 -53.5t-268.5 -152.5t-197 -228h-336q84 219 253.5 385t393 255t459.5 89q320 0 599.5 -155t446 -424t166.5 -593q0 -250 -95 -466.5t-266.5 -377t-394 -248t-473.5 -87.5
q-236 0 -448 87t-375 247t-266 378h336q303 -417 786 -417q224 0 417 101.5t316.5 281t151.5 395.5z" />
    <glyph glyph-name="afii10096" unicode="&#x44e;" horiz-adv-x="3654" 
d="M565 1327h574q52 271 218 493t413 348t532 126q305 0 574 -158.5t429 -426.5t160 -570q0 -314 -156 -590.5t-423.5 -441t-583.5 -164.5q-305 0 -573 152t-431.5 410.5t-175.5 559.5h-557v-1065h-303v2245h303v-918zM2302 1999q-244 0 -445.5 -120t-316.5 -326.5
t-115 -446.5q0 -233 117.5 -432.5t320 -317.5t439.5 -118q244 0 441.5 122t308 329t110.5 450q0 364 -262 614q-259 246 -598 246z" />
    <glyph glyph-name="afii10097" unicode="&#x44f;" horiz-adv-x="2040" 
d="M1221 1180l-713 -1180h-328l598 934q-190 27 -319 106q-271 181 -271 525q0 174 71.5 327t199.5 238q136 77 265.5 96t356.5 19h713v-2245h-303v1991h-279q-401 0 -499 -58q-213 -120 -213 -352q0 -118 50.5 -191t145.5 -145q112 -74 385 -74q21 0 68.5 4.5t71.5 4.5z
" />
    <glyph glyph-name="afii10056" unicode="&#x407;" horiz-adv-x="950" 
d="M311 0v3031h303v-3031h-303zM16 3817h303v-516h-303v516zM614 3817h304v-516h-304v516z" />
    <glyph glyph-name="afii10055" unicode="&#x406;" horiz-adv-x="999" 
d="M311 0v3031h303v-3031h-303z" />
    <glyph glyph-name="afii10103" unicode="&#x456;" horiz-adv-x="860" 
d="M262 0v2245h303v-2245h-303zM262 2515v516h303v-516h-303z" />
    <glyph glyph-name="afii10098" unicode="&#x491;" horiz-adv-x="1614" 
d="M1262 2245v401h303v-664h-1000v-1982h-303v2245h1000z" />
    <glyph glyph-name="afii10071" unicode="&#x451;" horiz-adv-x="2654" 
d="M2507 1016h-2032q9 -208 132 -387t317 -285t395 -106q167 0 328.5 60t287 172t187.5 259h319q-76 -221 -243.5 -401t-389.5 -282.5t-456 -102.5q-321 0 -592.5 157.5t-429.5 429t-158 592.5q0 317 156 587.5t425 427.5t590 157q262 0 493.5 -113t408.5 -321
q144 -185 199.5 -382t62.5 -462zM475 1286h1729q-40 199 -165.5 362t-308 257t-387.5 94t-391 -90.5t-313 -254.5t-164 -368zM836 3047h303v-516h-303v516zM1589 3047h303v-516h-303v516z" />
    <glyph glyph-name="afii61352" unicode="&#x2116;" horiz-adv-x="4170" 
d="M311 0v3031h443l1360 -2515v2515h303v-3031h-336l-1467 2662v-2662h-303zM3293 1745q166 0 310.5 -86.5t228.5 -233t84 -311.5q0 -163 -87 -307.5t-232 -229.5t-304 -85q-168 0 -314 83.5t-231.5 228t-85.5 310.5q0 169 84 314.5t229.5 231t317.5 85.5zM3293 672
q119 0 220 61.5t157.5 165.5t56.5 223q0 120 -57 222.5t-157 161.5t-220 59q-189 0 -315.5 -128.5t-126.5 -314.5q0 -120 57.5 -223.5t160 -165t224.5 -61.5zM2662 180h1254v-180h-1254v180z" />
    <glyph glyph-name="afii10101" unicode="&#x454;" horiz-adv-x="2605" 
d="M434 1016q28 -216 151.5 -395.5t316.5 -281t417 -101.5q483 0 786 417h336q-154 -329 -443 -520.5t-646 -191.5q-250 0 -472.5 87.5t-394.5 248.5t-267 377.5t-95 465.5q0 324 166.5 593t446 424t599.5 155q236 0 459 -89t393 -255t254 -385h-336q-116 197 -324.5 315.5
t-437.5 118.5q-164 0 -315.5 -51t-274 -146t-203 -227.5t-108.5 -288.5h1196v-270h-1204z" />
    <glyph glyph-name="afii10105" unicode="&#x458;" horiz-adv-x="950" 
d="M573 2245v-2106q0 -159 -11.5 -268.5t-56.5 -218.5t-136 -209q-104 -109 -249.5 -169t-307.5 -60v294q204 8 304 104t127 238.5t27 354.5v2040h303zM270 2515v516h303v-516h-303z" />
    <glyph glyph-name="afii10054" unicode="&#x405;" horiz-adv-x="2089" 
d="M90 852h328q5 -169 84.5 -309t216.5 -222.5t305 -82.5q169 0 313 78t227 215t83 305q0 121 -56 237.5t-149 196.5q-146 119 -467 196q-198 53 -316.5 98.5t-216.5 131.5q-254 217 -254 565q0 241 115 427.5t312 289t434 102.5q220 0 411 -108.5t303.5 -296t112.5 -406.5
v-8h-311q-12 149 -86 269t-195.5 187.5t-275.5 67.5q-145 0 -263 -70.5t-185.5 -190.5t-67.5 -263q0 -172 82 -274.5t199.5 -152.5t316.5 -105q54 -16 153 -45.5t161.5 -53.5t131.5 -64t135 -100q133 -114 206 -282.5t73 -347.5q0 -243 -125.5 -448.5t-337.5 -325
t-455 -119.5q-257 0 -472.5 116.5t-342.5 324.5t-127 468z" />
    <glyph glyph-name="afii10102" unicode="&#x455;" horiz-adv-x="1565" 
d="M74 664h303l-8 -17q0 -166 125 -287.5t292 -121.5q106 0 196.5 48t144 135t53.5 193q0 185 -117.5 280.5t-317.5 145.5q-177 61 -254.5 94t-154.5 103q-180 166 -180 426q0 178 87 323t237 226.5t323 81.5q164 0 308.5 -83.5t229 -223.5t84.5 -299h-303q0 143 -99.5 227
t-252.5 84q-129 0 -220 -91t-91 -220q0 -115 53 -186t133 -108.5t207 -74.5q300 -95 465.5 -238t165.5 -417q0 -209 -95 -374t-262 -256t-372 -91q-177 0 -336.5 95t-255.5 254t-96 339q0 4 4 16t4 17z" />
    <glyph glyph-name="afii10104" unicode="&#x457;" horiz-adv-x="999" 
d="M262 0v2245h303v-2245h-303zM-41 3031h303v-516h-303v516zM565 3031h303v-516h-303v516z" />
    <glyph glyph-name="afii10062" unicode="&#x40e;" horiz-adv-x="2376" 
d="M664 0l483 983l-1139 2048h336l959 -1737l786 1737h328l-1418 -3031h-335zM549 3359v278h1286v-278h-1286z" />
    <glyph glyph-name="afii10110" unicode="&#x45e;" horiz-adv-x="2138" 
d="M1835 2245h328l-1295 -3031h-319l352 860l-860 2171h319l721 -1786zM483 2564v270h1164v-270h-1164z" />
    <glyph glyph-name="afii10057" unicode="&#x408;" horiz-adv-x="1991" 
d="M1663 3031v-2179q-6 -104 -10 -178.5t-17.5 -146.5t-46 -142t-90.5 -139q-240 -303 -647 -303q-218 0 -401 102.5t-290.5 279.5t-111.5 396h295q19 -214 172 -348.5t369 -134.5q147 0 266.5 81t175.5 222q33 108 33 286v2204h303z" />
    <glyph glyph-name="afii10050" unicode="&#x490;" horiz-adv-x="1950" 
d="M311 3031h1254v467h303v-745h-1254v-2753h-303v3031z" />
    <glyph glyph-name="afii10023" unicode="&#x401;" horiz-adv-x="2179" 
d="M311 0v3031h1655v-278h-1352v-1090h1311v-270h-1311v-1114h1352v-279h-1655zM639 3817h303v-516h-303v516zM1393 3817h303v-516h-303v516z" />
    <glyph glyph-name="afii10053" unicode="&#x404;" horiz-adv-x="3318" 
d="M459 1393q35 -317 218.5 -583t465 -419t594.5 -153q203 0 398 68t364.5 196.5t285.5 292.5h336q-128 -249 -344.5 -443.5t-487 -301.5t-552.5 -107q-435 0 -800.5 208.5t-577.5 572.5t-212 800q0 420 211 779t572 568t782 209q490 0 877 -254q164 -107 316 -264t208 -309
h-336q-111 166 -281.5 287t-372 183t-403.5 62q-310 0 -585.5 -153t-453 -412t-214.5 -557h1540v-270h-1548z" />
    <glyph glyph-name="uni00AD" unicode="&#xad;" horiz-adv-x="1376" 
d="M131 1368h1106v-270h-1106v270z" />
  </font>
</defs>
</svg>
