<svg id="Слой_1" xmlns="http://www.w3.org/2000/svg" xmlns:xlink="http://www.w3.org/1999/xlink" viewBox="0 0 726.5 169.8" enable-background="new 0 0 726.5 169.8"><style>.st0{clip-path:url(#SVGID_2_)}.st1{fill:#2d203c}.st1,.st2{clip-path:url(#SVGID_4_)}.st3{clip-path:url(#SVGID_6_)}.st4{clip-path:url(#SVGID_8_);fill:url(#SVGID_9_)}.st5{clip-path:url(#SVGID_11_)}.st6{clip-path:url(#SVGID_13_);fill:url(#SVGID_14_)}.st7{clip-path:url(#SVGID_16_)}.st8{filter:url(#Adobe_OpacityMaskFilter)}.st10,.st9{clip-path:url(#SVGID_18_)}.st9{fill:url(#SVGID_20_)}.st10{mask:url(#SVGID_19_);fill:url(#SVGID_21_)}.st11{opacity:.48;clip-path:url(#SVGID_4_)}.st12{clip-path:url(#SVGID_23_)}.st13{clip-path:url(#SVGID_25_);fill:url(#SVGID_26_)}.st14{clip-path:url(#SVGID_28_)}.st15{clip-path:url(#SVGID_30_);fill:url(#SVGID_31_)}.st16{clip-path:url(#SVGID_33_)}.st17{clip-path:url(#SVGID_35_);fill:url(#SVGID_36_)}</style><defs><path id="SVGID_1_" d="M0 0h726.5v169.8H0z"/></defs><clipPath id="SVGID_2_"><use xlink:href="#SVGID_1_" overflow="visible"/></clipPath><g class="st0"><defs><path id="SVGID_3_" d="M0 0h726.5v169.8H0z"/></defs><clipPath id="SVGID_4_"><use xlink:href="#SVGID_3_" overflow="visible"/></clipPath><path class="st1" d="M225.2 115c3.2 5.2 9.4 8 17.6 8 8.2 0 14.5-6.6 14.5-15.1 0-7.6-6.6-11.9-16.2-14.9-12.4-4-25.3-7.8-25.3-24.4 0-12.5 9.2-22.3 24.8-22.3 7.9 0 15 3.9 19.4 11.3l-10.3 6.2c-2.1-3.6-5.5-5.4-9.1-5.4-8 0-12.7 4.5-12.7 10.2 0 7.1 9.2 10.5 16.9 12.9 13.9 4.6 24.6 12.2 24.6 26.3 0 15.3-11.6 27.1-26.5 27.1-12.4 0-22.4-4.8-27.9-13.6l10.2-6.3zm53.8 18.3V75.5h11.7v3.9c3.8-2.4 7.5-3.9 12.6-3.9 7.8 0 14.9 2.8 18.9 7.2 4.2-4.4 10.1-7.2 16.6-7.2 12.4 0 22.6 10.1 22.6 22.6v35.3h-11.7V98c0-6-4.9-10.9-10.9-10.9-5.6 0-10.2 4.2-10.9 9.6v36.6h-11.7l-.1-35.3c0-6-5.2-10.9-12.8-10.9-7.7 0-12.6 6-12.6 13.7v32.5H279zm140.1.1v-10.5c-5.1 6.8-13.8 11.1-22.5 11.1-15.2 0-27.5-13.2-27.5-29.6 0-16.2 12.3-29.5 27.5-29.5 8.7 0 17.4 4.4 22.5 11.1V75.6h11.7v57.8h-11.7zm-20.3-46.9c-10 0-18.1 8.1-18.1 18 0 10 8.1 18.1 18.1 18.1 9.9 0 18-8.1 18-18.1 0-10-8.1-18-18-18m68.9.7c-7.3 0-13.6 5.8-13.6 10.2v36.1h-11.7v-58h11.7v4.1c3.9-2.5 8.6-4.1 13.6-4.1v11.7zm7.8-.8h7.9V47.6H495v38.8h19.4V98H495v6c0 10.1 8.2 18.3 18.3 18.3V134c-16.5 0-29.9-13.4-29.9-29.9v-6h-7.9V86.4zm125.7 47h-53.7V47.6h12.6v73.2h41.1zm18.9-80.8c4 0 7.3 3.3 7.3 7.3s-3.3 7.2-7.3 7.2-7.2-3.2-7.2-7.2 3.2-7.3 7.2-7.3m6.1 80.7h-11.7V75.5h11.7v57.8zm38.1-74c-7.5 0-13.6 6.1-13.6 13.7v18.9h13.6v11.7h-13.6v29.8H639V73c0-14 11.4-25.4 25.3-25.4v11.7zm58.1 66c-5.7 5.7-13.4 8.6-20.9 8.6-7.6 0-15.2-2.8-20.9-8.6-5.7-5.7-8.6-13.3-8.6-20.9 0-7.5 2.8-15.2 8.6-20.9 5.7-5.6 13.2-8.6 20.9-8.6 7.5 0 16.4 4.3 25 12.6l-33 33c2.4 1.3 5.2 1.8 8 1.8 4.6 0 9.1-1.7 12.7-5.2l8.2 8.2zm-37-13l24.2-24.2c-2.3-1.1-5.5-1.8-8.1-1.8-4.8 0-9.3 1.8-12.7 5.2-3.6 3.6-5.2 8.2-5.2 12.7 0 3 .5 5.7 1.8 8.1"/><g class="st2"><defs><path id="SVGID_5_" d="M79.2 1.7H192v112.8H79.2z"/></defs><clipPath id="SVGID_6_"><use xlink:href="#SVGID_5_" overflow="visible"/></clipPath><g class="st3"><defs><path id="SVGID_7_" d="M121.8 112.8c-30.2-7.6-48.5-38.2-41-68.4s38.2-48.5 68.4-41c30.2 7.6 48.5 38.2 41 68.4-7.5 30.2-38.2 48.5-68.4 41"/></defs><clipPath id="SVGID_8_"><use xlink:href="#SVGID_7_" overflow="visible"/></clipPath><linearGradient id="SVGID_9_" gradientUnits="userSpaceOnUse" y1="169.833" x2="1" y2="169.833" gradientTransform="scale(-159.072 159.072) rotate(56.503 157.43 83.994)"><stop offset="0" stop-color="#fcee21"/><stop offset="1" stop-color="#f7931e"/></linearGradient><path class="st4" d="M255.1 33.7l-95.2 143.9L16 82.4l95.2-143.9z"/></g></g><g class="st2"><defs><path id="SVGID_10_" d="M81.1 78.6h91.2v91.2H81.1z"/></defs><clipPath id="SVGID_11_"><use xlink:href="#SVGID_10_" overflow="visible"/></clipPath><g class="st5"><defs><path id="SVGID_12_" d="M115.6 168.5c-24.4-6.1-39.3-30.9-33.1-55.3 6.1-24.4 30.9-39.3 55.3-33.1 24.4 6.1 39.3 30.9 33.1 55.3-6.1 24.3-30.9 39.2-55.3 33.1"/></defs><clipPath id="SVGID_13_"><use xlink:href="#SVGID_12_" overflow="visible"/></clipPath><linearGradient id="SVGID_14_" gradientUnits="userSpaceOnUse" y1="169.833" x2="1" y2="169.833" gradientTransform="scale(-211.3103 211.3103) rotate(-52.384 -172.22 86.06)"><stop offset="0" stop-color="#43ceff"/><stop offset=".029" stop-color="#41cbff"/><stop offset=".47" stop-color="#1e9bff"/><stop offset=".808" stop-color="#087eff"/><stop offset="1" stop-color="#0073ff"/></linearGradient><path class="st6" d="M113.8 223.3L27.6 111.4l111.9-86.2 86.2 111.9z"/></g></g><g class="st2"><defs><path id="SVGID_15_" d="M0 34.8h100.1v100.1H0z"/></defs><clipPath id="SVGID_16_"><use xlink:href="#SVGID_15_" overflow="visible"/></clipPath><g class="st7"><defs><path id="SVGID_17_" d="M37.9 133.4C11.1 126.7-5.2 99.5 1.5 72.7c6.7-26.8 33.9-43.1 60.7-36.4C89.1 43 105.4 70.2 98.6 97c-6.7 26.8-33.9 43.1-60.7 36.4"/></defs><clipPath id="SVGID_18_"><use xlink:href="#SVGID_17_" overflow="visible"/></clipPath><defs><filter id="Adobe_OpacityMaskFilter" filterUnits="userSpaceOnUse" x="-58.7" y="-23.9" width="217.5" height="217.5"><feColorMatrix values="1 0 0 0 0 0 1 0 0 0 0 0 1 0 0 0 0 0 1 0"/></filter></defs><mask maskUnits="userSpaceOnUse" x="-58.7" y="-23.9" width="217.5" height="217.5" id="SVGID_19_"><g class="st8"><linearGradient id="SVGID_20_" gradientUnits="userSpaceOnUse" y1="169.833" x2="1" y2="169.833" gradientTransform="scale(-231.99 231.99) rotate(-52.384 -172.253 85.56)"><stop offset="0" stop-color="#2d203c"/><stop offset="1" stop-color="gray"/></linearGradient><path class="st9" d="M36 193.6L-58.7 70.7 64.2-23.9l94.6 122.8z"/></g></mask><linearGradient id="SVGID_21_" gradientUnits="userSpaceOnUse" y1="169.833" x2="1" y2="169.833" gradientTransform="scale(-231.99 231.99) rotate(-52.384 -172.253 85.56)"><stop offset="0" stop-color="#ff3fe5"/><stop offset="1" stop-color="#2e00bf"/></linearGradient><path class="st10" d="M36 193.6L-58.7 70.7 64.2-23.9l94.6 122.8z"/></g></g><g class="st11"><defs><path id="SVGID_22_" d="M0 45.8h79.3v89.1H0z"/></defs><clipPath id="SVGID_23_"><use xlink:href="#SVGID_22_" overflow="visible"/></clipPath><g class="st12"><defs><path id="SVGID_24_" d="M27.5 47.4c-2.9-.7-5.9-1.2-8.8-1.6-8.2 6.6-14.4 15.8-17.2 26.9-6.7 26.8 9.6 54 36.4 60.7 14.4 3.6 28.8.6 40.2-7.1C84.7 91 62.8 56.2 27.5 47.4"/></defs><clipPath id="SVGID_25_"><use xlink:href="#SVGID_24_" overflow="visible"/></clipPath><linearGradient id="SVGID_26_" gradientUnits="userSpaceOnUse" y1="169.864" x2="1" y2="169.864" gradientTransform="scale(49.7381 -49.7381) rotate(40.376 234.028 84.716)"><stop offset="0" stop-color="#ed1e79"/><stop offset="1" stop-color="#9e005d"/></linearGradient><path class="st13" d="M-50.2 84.1L47 1.4l82.7 97.3-97.2 82.7z"/></g></g><g class="st2"><defs><path id="SVGID_27_" d="M60.8 0h25.3v25.3H60.8z"/></defs><clipPath id="SVGID_28_"><use xlink:href="#SVGID_27_" overflow="visible"/></clipPath><g class="st14"><defs><path id="SVGID_29_" d="M70.4 24.9c-6.8-1.7-10.9-8.6-9.2-15.3C62.9 2.8 69.8-1.3 76.5.4c6.8 1.7 10.9 8.6 9.2 15.3-1.6 6.8-8.5 10.9-15.3 9.2"/></defs><clipPath id="SVGID_30_"><use xlink:href="#SVGID_29_" overflow="visible"/></clipPath><linearGradient id="SVGID_31_" gradientUnits="userSpaceOnUse" y1="169.833" x2="1" y2="169.833" gradientTransform="scale(61.683 -61.683) rotate(-66.858 -127.912 84.347)"><stop offset="0" stop-color="#9694ff"/><stop offset=".454" stop-color="#8e9fff"/><stop offset="1" stop-color="#7fb2ff"/></linearGradient><path class="st15" d="M83.1-11.4l14.4 33.7-33.7 14.4L49.4 3z"/></g></g><g class="st2"><defs><path id="SVGID_32_" d="M129.6 1.7H192v83.1h-62.4z"/></defs><clipPath id="SVGID_33_"><use xlink:href="#SVGID_32_" overflow="visible"/></clipPath><g class="st16"><defs><path id="SVGID_34_" d="M190.2 71.8c7.6-30.2-10.8-60.8-41-68.4-4.3-1.1-8.6-1.6-12.9-1.7-2.2 4-3.9 8.4-5.1 13.1-7.6 30.2 10.8 60.8 41 68.4 4.3 1.1 8.6 1.6 12.9 1.7 2.3-4.1 4-8.5 5.1-13.1"/></defs><clipPath id="SVGID_35_"><use xlink:href="#SVGID_34_" overflow="visible"/></clipPath><linearGradient id="SVGID_36_" gradientUnits="userSpaceOnUse" y1="169.833" x2="1" y2="169.833" gradientTransform="scale(-81.738 81.738) rotate(50.711 177.82 82.752)"><stop offset="0" stop-color="#fcee21"/><stop offset="1" stop-color="#f7931e"/></linearGradient><path class="st17" d="M238.6 35.1l-70.5 86.1L83 51.5l70.4-86.1z"/></g></g></g></svg>